<svg width="222" height="123" fill="none" xmlns="http://www.w3.org/2000/svg"><path d="M67.067 41.1l21.58 39H45.53l-20.642-39h42.18z" fill="#DB0C66" stroke="#34C2FF"/><path d="M88.65 81.1l-21.585 39.006-43.12.974L45.527 81.1h43.121z" fill="#BD2F42" stroke="#34C2FF"/><path d="M44.663 80.597l-21.581 39.977L.579 81.602l23.457-39.976 20.627 38.971z" fill="#F06259" stroke="#34C2FF"/><path d="M86.899 1.111l44.104 1.756-21.585 38.226-44.104-.975L86.9 1.111z" fill="#F20FB8" stroke="#34C2FF"/><path d="M152.732 41.604l-20.241 38.95-22.211-38.956L131.926 3.33l20.806 38.274z" fill="#AF21FE" stroke="#34C2FF"/><path d="M109.412 42.093l22.136 38.987-42.918-.974L65.37 41.12l44.043.973z" fill="#D61AFF" stroke="#34C2FF"/><path d="M153.884 42.102l43.503.39-21.572 38.01-43.128.292 21.197-38.692z" fill="#FF0" stroke="#34C2FF"/><path d="M220.766 82.01l-21.095 39.847-22.989-40.856 21.563-37.995 22.521 39.004z" fill="#EBC14F" stroke="#34C2FF"/><path d="M175.817 81.501l23.099 40.979-42.915-.973-22.818-39.81 42.634-.196z" fill="#BEED2B" stroke="#34C2FF"/></svg>