<svg width="111" height="73" fill="none" xmlns="http://www.w3.org/2000/svg"><path d="M76.778 14.313h-20.21v17h20.21v-17z" fill="#D93B0A"/><path d="M60.418 14.313l9.56 17h6.8v-17h-16.36z" fill="#061766"/><path d="M68.115 45.313v18" stroke="#325D7F" stroke-miterlimit="10"/><path d="M49.663 53.19l-.71.61s-.322.313-.66-.148l-.21-.296a.465.465 0 0 1-.017-.535.822.822 0 0 1 .162-.185c.37-.35 1.016-.942 1.016-.942s-.823-.701-1.678-.203c-.87.499-1.097 1.108-1.129 1.533-.032.425.194.886-.322 1.44-.532.554-3.549 4.025-3.549 4.025l-1.08 1.219s-.677.72-.048 1.385c.467.498 1.064.055 1.435-.406.355-.444 4.355-5.023 4.355-5.023s.322-.646 1.096-.498c.79.129 1.371-.425 1.484-1.108.097-.683-.145-.868-.145-.868z" fill="#061766"/><path d="M45.982 64.313c4.252 0 7.699-3.582 7.699-8 0-4.419-3.447-8-7.699-8s-7.699 3.581-7.699 8c0 4.418 3.447 8 7.699 8z" stroke="#C16B86" stroke-miterlimit="10"/><path d="M67.153 72.313c2.658 0 4.812-2.015 4.812-4.5 0-2.486-2.154-4.5-4.812-4.5-2.657 0-4.811 2.014-4.811 4.5 0 2.485 2.154 4.5 4.811 4.5z" stroke="#4784DA" stroke-miterlimit="10"/><path d="M76.778 14.313h-20.21v17h20.21v-17z" stroke="#4C0C82" stroke-width="7.433" stroke-miterlimit="10"/><path d="M53.68 32.313v1H78.7v-1H53.68zm14.88.69h-5.077v-.412h5.077v.412z" fill="#4C0C82"/><path d="M45.02 48.313v-2.8l3.423-4.2h6.2" stroke="#F34809" stroke-miterlimit="10"/><path d="M24.81 59.313l14.42-18h14.45" stroke="#C16B86" stroke-miterlimit="10"/><path d="M83.514 35.313h3.763l5.86 4" stroke="#6C5B7D" stroke-miterlimit="10"/><path d="M17.111 33.313h7.556l3.003 4h22.161" stroke="#325D7F" stroke-miterlimit="10"/><path d="M45.55 20.313h-3.316l-2.988-5.477 1.444-1.524 2.252 4.798h3.04" stroke="#F34809" stroke-miterlimit="10"/><path d="M34.915 16.313c3.986 0 7.217-3.358 7.217-7.5 0-4.143-3.231-7.5-7.217-7.5-3.986 0-7.218 3.357-7.218 7.5 0 4.142 3.232 7.5 7.218 7.5zM19.037 72.313c4.252 0 7.698-3.582 7.698-8 0-4.419-3.447-8-7.698-8-4.252 0-7.7 3.581-7.7 8 0 4.418 3.448 8 7.7 8z" stroke="#325D7F" stroke-miterlimit="10"/><path d="M8.932 42.313c4.518 0 8.18-3.806 8.18-8.5 0-4.695-3.662-8.5-8.18-8.5s-8.18 3.805-8.18 8.5c0 4.694 3.662 8.5 8.18 8.5z" stroke="#F34809" stroke-miterlimit="10"/><path d="M101.798 51.313c4.783 0 8.661-4.03 8.661-9 0-4.971-3.878-9-8.661-9-4.784 0-8.661 4.029-8.661 9 0 4.97 3.877 9 8.661 9z" stroke="#F2727F" stroke-miterlimit="10"/><path d="M37.441 12.313H32.39c-.463 0-.842-.421-.842-.936v-4.13c0-.514.379-.934.842-.934h5.052c.463 0 .842.42.842.935v4.13c0 .53-.379.934-.842.934z" fill="#C20165"/><path d="M33.47 6.313v-1.56s.205-1.44 1.867-1.44 1.983 1.5 1.983 1.5v1.5" stroke="#C20165" stroke-miterlimit="10"/><path d="M21.39 64.977h-.4l-.133-.139a3.392 3.392 0 0 0 .775-2.177c0-1.85-1.442-3.349-3.222-3.349-1.781 0-3.223 1.498-3.223 3.349 0 1.85 1.442 3.348 3.223 3.348.8 0 1.526-.302 2.095-.806l.134.139v.403l2.47 2.567.74-.767c.012 0-2.46-2.568-2.46-2.568zm-2.968 0c-1.236 0-2.23-1.032-2.23-2.316 0-1.284.994-2.316 2.23-2.316 1.235 0 2.229 1.032 2.229 2.316 0 1.284-.994 2.316-2.23 2.316z" fill="#C20165"/><path d="M105.647 38.313h-7.698c-.529 0-.963.506-.963 1.124v6.75c0 .619.434 1.126.963 1.126h7.698c.529 0 .963-.508.963-1.126v-6.75c0-.617-.434-1.124-.963-1.124zm0 2.25l-3.849 2.804-3.85-2.804v-1.126l3.85 2.805 3.849-2.804v1.124z" fill="#D93B0A"/><path d="M5.716 37.312h6.669s1.982-.264 1.831-2.26c-.15-1.997-2.5-1.78-2.5-1.78s.218-2.91-2.597-2.959c-2.815-.048-2.72 2.91-2.72 2.91s-2.72-.408-2.76 2.117c0 2.02 2.077 1.972 2.077 1.972z" fill="#FF9C00"/><path d="M67.07 70.127l.18 1.186 1.263-1.72-1.725-1.26.179 1.186a1.814 1.814 0 0 1-2.066-1.512 1.81 1.81 0 0 1 3.582-.549l.594-.089a2.418 2.418 0 0 0-2.75-2.03 2.413 2.413 0 0 0-2.035 2.742 2.463 2.463 0 0 0 2.779 2.046z" fill="#C20165"/><path d="M65.228 45.313v18" stroke="#6C5B7D" stroke-miterlimit="10"/><path d="M66.191 45.313c11.693 0 21.172-9.403 21.172-21 0-11.598-9.48-21-21.172-21-11.693 0-21.172 9.401-21.172 21 0 11.598 9.48 21 21.172 21z" stroke="#4784DA" stroke-width="2" stroke-miterlimit="10"/></svg>