<svg width="69" height="72" fill="none" xmlns="http://www.w3.org/2000/svg"><path d="M64.26 70.188H4.947c-2.476 0-4.475-2.077-4.475-4.65V25.496c0-2.573 1.999-4.65 4.475-4.65h59.315c2.476 0 4.475 2.077 4.475 4.65v40.042c.015 2.558-1.999 4.65-4.475 4.65z" fill="#13B0BF"/><path d="M58.07 20.846H8.585v49.342h49.483V20.846z" fill="#F9F9F9"/><path d="M64.228 41.48h-2.267v9.255h2.267V41.48z" fill="#000"/><path d="M8.586 21.033h49.483" stroke="#325D7F" stroke-width="3.193" stroke-miterlimit="10"/><path d="M20.372 3.936L9.54 7.997l9.115 25.764 10.83-4.046-9.114-25.78zm-6.699 7.905c0-.806.627-1.457 1.418-1.472.775 0 1.417.65 1.417 1.457 0 .806-.627 1.457-1.417 1.473-.776 0-1.418-.651-1.418-1.457zm3.73 7.86c-.776 0-1.417-.651-1.417-1.457s.626-1.457 1.417-1.473c.776 0 1.417.651 1.417 1.457s-.627 1.473-1.417 1.473zm2.626 7.456c-.776 0-1.418-.65-1.418-1.457 0-.806.627-1.457 1.418-1.473.775 0 1.417.652 1.417 1.458 0 .806-.627 1.457-1.418 1.472z" fill="#3B79A3"/><path d="M24.086 31.73l5.386-2.015-9.1-25.78-5.386 2.016c3.312 9.41 9.1 25.78 9.1 25.78z" fill="#325D7F"/><path d="M50.387 31.729H17v30.926h33.387V31.728z" fill="#EFEA66"/><path d="M46.253 49.478h-8.995v2.744h8.995v-2.744z" fill="#F0677F"/><path d="M48.047 9.174H38.44v19.563h9.607V9.174z" fill="#F2727F"/><path d="M48.06 9.174h-4.804v19.563h4.803V9.174z" fill="#F8B195"/><path d="M43.243 1.594h.015l-4.819 7.534h9.623l-4.819-7.534z" fill="#F2727F"/><path d="M43.243 1.594v7.58H38.44l4.803-7.58z" fill="#F8B195"/><path d="M29.473 10.941v17.797h5.997V10.693a5.148 5.148 0 0 1-3.163 1.07 5.084 5.084 0 0 1-2.834-.822z" fill="#F2727F"/><path d="M35.469 8.771h-3.252v19.967h3.252V8.77z" fill="#C16B86"/><path d="M37.618 6.306c0-3.023-2.387-5.472-5.311-5.472-2.939 0-5.31 2.45-5.31 5.472 0 1.953.999 3.659 2.49 4.635v-2.93h5.997v2.698a5.555 5.555 0 0 0 2.134-4.403z" fill="#325D7F"/><path d="M29.473 8.012v2.93a5.213 5.213 0 0 0 5.997-.232V8.011h-5.997z" fill="#325D7F"/><path d="M46.254 33.73H20.4v13.084h25.854V33.73z" fill="#4784DA"/><path d="M52.565 28.738H14.076v3.008h38.489v-3.008z" fill="#F0677F"/><path d="M8.586 69.941h49.483" stroke="#325D7F" stroke-width="3.193" stroke-miterlimit="10"/></svg>