<svg width="160" height="72" fill="none" xmlns="http://www.w3.org/2000/svg"><path d="M39.806 45.108l12.586-22.393c-3.84-2.303-7.714-3.276-12.506-3.276a25.54 25.54 0 0 0-14.262 4.358A25.817 25.817 0 0 0 16.17 35.4a26.028 26.028 0 0 0-1.461 14.938 25.914 25.914 0 0 0 7.024 13.238 25.615 25.615 0 0 0 13.143 7.077c4.98.999 10.14.487 14.832-1.469 4.69-1.956 8.7-5.27 11.521-9.52a25.988 25.988 0 0 0 4.33-14.364v-.191H39.805z" fill="#C20165"/><path d="M43.355 42.96L56.61 20.372s12.744 6.845 13.084 22.59H43.356z" fill="#4C0C82"/><path d="M20.621 47.176L9.643 53.542v11.56M59.4 34.106L70.38 27.74v-7.369" stroke="#6C5B7D" stroke-width="2" stroke-miterlimit="10"/><path d="M67.42 14.396h-6.766v2.457h6.765v-2.457zM71.52 14.396h-3.104v2.457h3.104v-2.457z" fill="#fff"/><path d="M6.87 68.342H.105v2.457H6.87v-2.457z" fill="#4C1111"/><path d="M10.972 68.342H7.867v2.457h3.105v-2.457z" fill="#DB0C66"/><path d="M107.905 54.762h-7.596v2.457h7.596v-2.457z" fill="#F8B195"/><path d="M98.423 54.762H88.332v2.457h10.09v-2.457z" fill="#4784DA"/><path d="M98.423 57.834H88.332v2.457h10.09v-2.457z" fill="#6C5B7D"/><path d="M121.294 54.762H109.4v2.457h11.894v-2.457zM128.406 54.762h-5.947v2.457h5.947v-2.457zM144.582 54.762h-15.553v2.457h15.553v-2.457zM110.441 58.072h-10.132v2.457h10.132v-2.457zM114.808 58.072h-3.646v2.457h3.646v-2.457zM129.693 58.072h-13.875v2.457h13.875v-2.457zM136.807 58.072h-6.1v2.457h6.1v-2.457zM110.441 64.478h-10.132v2.457h10.132v-2.457zM115.348 64.478h-4.186v2.457h4.186v-2.457zM130.027 64.478h-13.709v2.457h13.709v-2.457zM108.113 61.379h-7.804v2.457h7.804v-2.457zM121.626 61.379h-12.419v2.457h12.419v-2.457z" fill="#F8B195"/><path d="M18.845 6.082H8.754v2.457h10.09V6.082z" fill="#6C5B7D"/><path d="M18.845 9.154H8.754v2.457h10.09V9.154z" fill="#FF9C00"/><path d="M28.616 5.965H21.02v2.457h7.596V5.965zM42.007 5.965H30.113v2.457h11.894V5.965zM49.119 5.965h-5.947v2.457h5.947V5.965zM65.295 5.965H49.742v2.457h15.553V5.965zM31.152 9.273H21.02v2.457h10.133V9.273zM35.52 9.273h-3.645v2.457h3.646V9.273zM50.408 9.273H36.533v2.457h13.875V9.273zM57.518 9.273h-6.1v2.457h6.1V9.273z" fill="#F8B195"/><path d="M90.518 28.226a2.231 2.231 0 0 0 2.227-2.236 2.231 2.231 0 0 0-2.227-2.236 2.231 2.231 0 0 0-2.227 2.236c0 1.235.997 2.236 2.227 2.236zM102.766 13.468c.861 0 1.559-.7 1.559-1.565 0-.864-.698-1.565-1.559-1.565s-1.559.7-1.559 1.565.698 1.565 1.559 1.565zM112.34 24.648c.984 0 1.782-.8 1.782-1.789 0-.988-.798-1.789-1.782-1.789s-1.781.801-1.781 1.79c0 .987.797 1.788 1.781 1.788zM121.694 14.81c.737 0 1.336-.6 1.336-1.341a1.34 1.34 0 0 0-1.336-1.342c-.738 0-1.337.6-1.337 1.342 0 .74.599 1.341 1.337 1.341zM130.825 18.835c1.106 0 2.004-.8 2.004-1.788s-.898-1.79-2.004-1.79c-1.107 0-2.005.802-2.005 1.79s.898 1.788 2.005 1.788zM140.399 4.078c.984 0 1.781-.801 1.781-1.79 0-.987-.797-1.788-1.781-1.788-.984 0-1.782.8-1.782 1.789 0 .988.798 1.789 1.782 1.789z" fill="#4784DA"/><path d="M90.42 25.65l12.622-13.778 9.566 10.979 9.398-9.354 9.009 3.36 9.897-15.402" stroke="#4784DA" stroke-width="2" stroke-miterlimit="10"/><path d="M90.518 34.935c.984 0 1.781-.8 1.781-1.789 0-.988-.797-1.789-1.781-1.789-.984 0-1.782.801-1.782 1.79 0 .987.798 1.788 1.782 1.788zM102.32 26.437c.615 0 1.114-.5 1.114-1.118 0-.617-.499-1.118-1.114-1.118-.614 0-1.113.5-1.113 1.118 0 .618.499 1.118 1.113 1.118zM112.563 31.358c.615 0 1.113.5 1.113 1.118 0 .617-.498 1.118-1.113 1.118s-1.114-.5-1.114-1.118c0-.618.499-1.118 1.114-1.118zM122.139 20.177c.738 0 1.336-.6 1.336-1.341s-.598-1.342-1.336-1.342c-.738 0-1.336.6-1.336 1.342 0 .74.598 1.341 1.336 1.341zM131.047 30.015c.984 0 1.782-.7 1.782-1.565 0-.864-.798-1.565-1.782-1.565s-1.781.7-1.781 1.565c0 .864.797 1.565 1.781 1.565zM140.399 15.705c.984 0 1.781-.801 1.781-1.79 0-.987-.797-1.788-1.781-1.788-.984 0-1.782.8-1.782 1.789 0 .988.798 1.789 1.782 1.789z" fill="#F34809"/><path d="M90.639 32.882l11.682-7.624 10.293 7.673 9.397-14.114 9.12 10.473 10-16.018" stroke="#F34809" stroke-width="2" stroke-miterlimit="10"/><path d="M81.28 4.678v40.624h77.826" stroke="#6C5B7D" stroke-width="2" stroke-miterlimit="10"/></svg>