<svg width="167" height="72" fill="none" xmlns="http://www.w3.org/2000/svg"><path d="M77.18 1.793H1.817v56.496h75.365V1.793z" fill="#13B0BF"/><path d="M132.571 8.355H91.287v56.497h41.284V8.355z" fill="#EFEA66"/><path d="M161.32 69.393h-7.423c-3.035 0-5.489-2.54-5.489-5.682V40.233c0-3.142 2.454-5.682 5.489-5.682h7.423c3.036 0 5.489 2.54 5.489 5.682v23.478c0 3.142-2.453 5.682-5.489 5.682z" fill="#F0677F"/><path d="M75.969.377H4.631c-2.328 0-4.23 1.954-4.23 4.38v51.775c0 2.41 1.887 4.38 4.23 4.38h71.338c2.328 0 4.23-1.954 4.23-4.38V4.757c0-2.426-1.902-4.38-4.23-4.38zm.016 50.586c0 2.41-1.888 4.38-4.23 4.38H9.285c-2.327 0-4.23-1.954-4.23-4.38V8.42c0-2.41 1.887-4.38 4.23-4.38h62.468c2.328 0 4.23 1.954 4.23 4.38v42.543z" fill="#325D7F"/><path d="M135.323 64.102V8.077c0-1.84-1.463-3.321-3.272-3.321H93.41c-1.809 0-3.271 1.481-3.271 3.321v56.025c0 1.84 1.462 3.321 3.27 3.321h38.642c1.809 0 3.272-1.482 3.272-3.321zm-37.761.016c-1.809 0-4.938-1.286-4.938-3.11l.125-49.43c0-1.84 3.02-3.159 4.813-3.159h31.737c1.809 0 3.271 1.482 3.271 3.322v49.056c0 1.84-1.462 3.32-3.271 3.32H97.562z" fill="#6C5B7D"/><path d="M166.809 67.65V36.408c0-1.026-.598-1.856-1.337-1.856h-15.743c-.739 0-1.336.83-1.336 1.856V67.65c0 1.026.597 1.856 1.336 1.856h15.743c.739 0 1.337-.83 1.337-1.856zm-15.381.017c-.739 0-2.013-.716-2.013-1.742l.047-27.58c0-1.026 1.227-1.759 1.966-1.759h12.928c.739 0 1.336.83 1.336 1.856v27.37c0 1.025-.597 1.855-1.336 1.855h-12.928z" fill="#325D7F"/><path d="M47.392 58.291h-13.73v9.346h13.73V58.29z" fill="#7F7F7F"/><path d="M53.463 66.725H26.947v4.9h26.516v-4.9z" fill="#000"/><path d="M125.226 48.815H99.402V60.78h25.824V48.815z" fill="#13B0BF"/><path d="M123.607 51.842h-23.072v.44h23.072v-.44zM123.607 53.242h-23.072v.44h23.072v-.44zM123.607 54.643h-23.072v.44h23.072v-.44zM123.607 56.041h-23.072v.44h23.072v-.44z" fill="#fff"/><path d="M125.242 33.72H99.418v11.968h25.824V33.72z" fill="#13B0BF"/><path d="M123.607 36.75h-23.072v.44h23.072v-.44zM123.607 38.15h-23.072v.44h23.072v-.44zM123.607 39.55h-23.072v.44h23.072v-.44zM123.607 40.95h-23.072v.439h23.072v-.44z" fill="#fff"/><path d="M164.277 57.523h-12.896v7.034h12.896v-7.034z" fill="#000"/><path d="M163.475 59.299h-11.528v.26h11.528v-.26zM163.475 60.129h-11.528v.26h11.528v-.26zM163.475 60.943h-11.528v.26h11.528v-.26zM163.475 61.773h-11.528v.261h11.528v-.26z" fill="#fff"/><path d="M157.168 44.662h-5.787v2.394h5.787v-2.394z" fill="#000"/><path d="M164.434 44.662h-5.788v2.394h5.788v-2.394zM157.168 48.473h-5.787v2.393h5.787v-2.393zM164.278 48.473h-5.788v2.393h5.788v-2.393z" fill="#606060"/><path d="M31.509 11.97h-20.32v3.355h20.32V11.97z" fill="#F0677F"/><path d="M122.899 11.97H102.58v3.355h20.319V11.97z" fill="#F34809"/><path d="M164.277 39.713h-12.896v3.354h12.896v-3.354z" fill="#13B0BF"/><path d="M37.013 30.645H11.19V42.61h25.823V30.645z" fill="#4784DA"/><path d="M66.58 19.523H39.23v7.555h27.35v-7.555zM45.018 12.914H39.23v2.393h5.788v-2.393z" fill="#000"/><path d="M52.284 12.914h-5.788v2.393h5.788v-2.393zM59.471 12.914h-5.787v2.393h5.787v-2.393zM66.58 12.914h-5.787v2.393h5.788v-2.393z" fill="#606060"/><path d="M104.844 19.066h-5.787v2.394h5.787v-2.394z" fill="#000"/><path d="M112.11 19.066h-5.788v2.394h5.788v-2.394zM119.297 19.066h-5.787v2.394h5.787v-2.394zM126.422 19.066h-5.787v2.394h5.787v-2.394z" fill="#606060"/><path d="M37.013 22.438H11.19v.44h25.823v-.44zM37.013 23.838H11.19v.44h25.823v-.44zM37.013 25.238H11.19v.44h25.823v-.44zM37.013 26.637H11.19v.44h25.823v-.44zM35.392 33.672H12.32v.44h23.072v-.44zM35.392 35.088H12.32v.44h23.072v-.44zM35.392 36.488H12.32v.44h23.072v-.44zM35.392 37.889H12.32v.44h23.072v-.44z" fill="#fff"/><path d="M66.455 30.938H40.63v11.966h25.824V30.937z" fill="#4784DA"/><path d="M64.835 33.965H41.764v.44h23.071v-.44zM64.835 35.365H41.764v.44h23.071v-.44zM64.835 36.766H41.764v.44h23.071v-.44zM64.835 38.166H41.764v.44h23.071v-.44z" fill="#fff"/><path d="M39.23 27.078l3.885-7.555 4.278 7.555H39.23z" fill="#F0677F"/><path d="M58.418 27.078l3.885-7.555 4.277 7.555h-8.162zM51.86 19.523h-4.073v7.555h4.073v-7.555z" fill="#fff"/><path d="M58.024 21.705h-5.536v5.405h5.536v-5.405z" fill="#F0677F"/><path d="M126.406 24.002h-27.35v7.555h27.35v-7.555z" fill="#000"/><path d="M99.057 31.719l3.884-7.555 4.278 7.555h-8.162z" fill="#13B0BF"/><path d="M118.242 31.719l3.885-7.555 4.278 7.555h-8.163zM111.685 24.164h-4.074v7.555h4.074v-7.555z" fill="#F0677F"/><path d="M117.85 26.346h-5.536v5.405h5.536v-5.405z" fill="#13B0BF"/><path d="M164.277 53.08h-12.896v3.663h12.896V53.08z" fill="#000"/><path d="M151.381 56.728l1.84-3.566 2.013 3.566h-3.853z" fill="#fff"/><path d="M160.424 56.728l1.84-3.566 2.013 3.566h-3.853zM157.342 53.162h-1.92v3.566h1.92v-3.566z" fill="#EFEA66"/><path d="M160.249 54.188h-2.61v2.556h2.61v-2.556z" fill="#fff"/><path d="M130.369 39.957c6.637 8.027 7.99 9.72 20.65 9.915 0-1.84-.016-4.933-.016-4.933l7.942 7.099-7.942 7.343v-5.194s-10.6.88-15.475-3.093l-5.19-4.234.031-6.903z" fill="#4784DA"/><path d="M72.147 22.16c7.643 9.248 9.31 11.511 23.78 12.081 0-2.133-.017-5.682-.017-5.682l9.154 8.173-9.138 8.466v-5.975s-12.204 1.026-17.834-3.566L72.1 30.79l.047-8.629z" fill="#D93B0A"/></svg>