<svg width="84" height="71" fill="none" xmlns="http://www.w3.org/2000/svg"><g clip-path="url(#clip0)"><path d="M57.608 23.853l6.877-5.995L58.806 7.4 49.61 9.823v.011c-.115-.07-.23-.138-.346-.205L47.234.548 35.28.512 33.145 9.17c-.467.239-.922.498-1.363.777l-8.377-2.281-5.62 10.5 6.206 5.506v.406c0 .443.018.885.053 1.32l-5.923 5.59 6.103 10.223 8.336-2.55c.328.185.665.36 1.012.523l2.157 8.225 11.944-.386 1.801-8.612c.15-.091.3-.184.447-.278l8.351 2.674 6.087-10.234-6.74-6.534c-.01-.067-.01-.127-.011-.187zM40.776 12.722c2.253 0 4.455.664 6.329 1.91A11.349 11.349 0 0 1 51.3 19.72a11.286 11.286 0 0 1 .648 6.55 11.32 11.32 0 0 1-3.118 5.804 11.409 11.409 0 0 1-5.833 3.103c-2.21.437-4.5.212-6.582-.645a11.381 11.381 0 0 1-5.112-4.176 11.297 11.297 0 0 1 1.416-14.314 11.42 11.42 0 0 1 8.056-3.32z" fill="#4784DA"/><path d="M40.776 9.158c-2.96 0-5.855.874-8.318 2.511a14.915 14.915 0 0 0-5.514 6.686 14.831 14.831 0 0 0-.852 8.608 14.877 14.877 0 0 0 4.098 7.629 14.995 14.995 0 0 0 7.665 4.077 15.04 15.04 0 0 0 8.65-.848 14.957 14.957 0 0 0 6.72-5.487 14.847 14.847 0 0 0 1.383-13.979 14.892 14.892 0 0 0-3.245-4.833 14.975 14.975 0 0 0-4.857-3.23 15.035 15.035 0 0 0-5.73-1.134zm0 25.515c-2.11 0-4.173-.622-5.927-1.788a10.627 10.627 0 0 1-3.93-4.764 10.567 10.567 0 0 1-.608-6.134 10.6 10.6 0 0 1 2.92-5.436 10.684 10.684 0 0 1 5.462-2.906c2.07-.41 4.215-.2 6.164.604a10.656 10.656 0 0 1 4.788 3.91 10.58 10.58 0 0 1-1.326 13.404c-2 1.99-4.714 3.11-7.543 3.11z" fill="#061766"/><path d="M26.52 52.19l4.567-4.004-3.767-6.985-6.112 1.608v.008a6.657 6.657 0 0 0-.23-.137l-1.35-6.062-7.918-.022-1.418 5.784c-.31.16-.611.333-.904.52L3.83 41.378.104 48.385l4.116 3.673v.27c0 .297.013.592.035.882l-3.93 3.733 4.05 6.833 5.534-1.703c.218.124.441.24.67.349l1.43 5.494 7.923-.259 1.197-5.752c.1-.06.198-.122.296-.186l5.535 1.793 4.038-6.834-4.472-4.366a1.158 1.158 0 0 1-.006-.122zm-11.166-7.434a7.637 7.637 0 0 1 4.242 1.25 7.581 7.581 0 0 1 2.826 3.388 7.539 7.539 0 0 1-1.615 8.27 7.644 7.644 0 0 1-8.3 1.665 7.601 7.601 0 0 1-3.423-2.79 7.546 7.546 0 0 1-1.286-4.212 7.512 7.512 0 0 1 2.2-5.346 7.616 7.616 0 0 1 5.355-2.23v.005z" fill="#EFEA66"/><path d="M15.353 42.371c-5.484 0-9.931 4.455-9.931 9.951 0 5.497 4.447 9.952 9.931 9.952 5.484 0 9.932-4.455 9.932-9.952 0-5.496-4.446-9.95-9.932-9.95zm0 17.043a7.152 7.152 0 0 1-3.972-1.171 7.1 7.1 0 0 1-2.647-3.173 7.06 7.06 0 0 1 1.514-7.745 7.136 7.136 0 0 1 3.648-1.954 7.16 7.16 0 0 1 4.124.395 7.12 7.12 0 0 1 3.206 2.611 7.067 7.067 0 0 1 1.205 3.945 7.038 7.038 0 0 1-2.063 5.005 7.132 7.132 0 0 1-5.015 2.087z" fill="#F0677F"/><path d="M30.607 14.559a23.105 23.105 0 0 0-12.793 3.86 22.938 22.938 0 0 0-8.48 10.283 22.809 22.809 0 0 0-1.312 13.239 22.878 22.878 0 0 0 6.302 11.731 23.061 23.061 0 0 0 11.79 6.271 23.13 23.13 0 0 0 13.303-1.304 23.001 23.001 0 0 0 10.333-8.44 22.812 22.812 0 0 0 2.127-21.498 22.903 22.903 0 0 0-4.99-7.432 23.028 23.028 0 0 0-7.47-4.966 23.12 23.12 0 0 0-8.81-1.744zm0 43.939a21.197 21.197 0 0 1-11.736-3.543 21.043 21.043 0 0 1-7.78-9.433 20.925 20.925 0 0 1-1.202-12.145 20.99 20.99 0 0 1 5.78-10.763 21.156 21.156 0 0 1 10.817-5.753 21.22 21.22 0 0 1 12.204 1.196 21.101 21.101 0 0 1 9.48 7.742 20.948 20.948 0 0 1 3.56 11.678 20.968 20.968 0 0 1-6.187 14.864 21.176 21.176 0 0 1-14.936 6.157z" fill="#FF9C00"/><path d="M64.466 54.838l-2.632 4.537 3.14 1.804 2.632-4.537-3.14-1.804zM53.562 48.573a25.32 25.32 0 0 0 1.396-18.806 25.46 25.46 0 0 0-12.002-14.594 25.67 25.67 0 0 0-18.801-2.358A25.549 25.549 0 0 0 8.89 23.989a25.329 25.329 0 0 0-3.337 18.563A25.426 25.426 0 0 0 15.98 58.299a25.656 25.656 0 0 0 18.457 4.273 25.583 25.583 0 0 0 16.34-9.549l5.215 2.995 2.631-4.536-5.061-2.909zM30.607 60.231A22.954 22.954 0 0 1 17.9 56.394 22.787 22.787 0 0 1 9.474 46.18a22.66 22.66 0 0 1-1.302-13.152 22.728 22.728 0 0 1 6.26-11.654 22.909 22.909 0 0 1 11.713-6.23 22.978 22.978 0 0 1 13.216 1.295 22.85 22.85 0 0 1 10.265 8.384 22.684 22.684 0 0 1 3.855 12.646c0 6.037-2.41 11.827-6.7 16.096a22.932 22.932 0 0 1-16.174 6.667z" fill="#6C5B7D"/><path d="M64.35 54.77l.116.067.354-.61-5.841-3.356-.356.611.136.077-2.633 4.536-.134-.076-.386.666 5.84 3.355.387-.665-.116-.068 2.633-4.537z" fill="#4784DA"/><path d="M64.351 54.772l-2.632 4.537.116.066 2.632-4.537-.116-.066zM58.624 51.483l-2.632 4.537.135.077 2.632-4.537-.135-.077z" fill="#6C5B7D"/><path d="M67.969 56.018l-.364.624-2.631 4.538-.37.635 15.138 8.697 3.364-5.798-15.137-8.696z" fill="#4784DA"/></g><defs><clipPath id="clip0"><path fill="#fff" transform="translate(.105 .512)" d="M0 0h83v70H0z"/></clipPath></defs></svg>