<svg width="68" height="71" fill="none" xmlns="http://www.w3.org/2000/svg"><path d="M33.703 59.247c2.502 6.476 8.6 11.048 15.716 11.048 2.862 0 5.559-.733 7.911-2.044l9.798 1.326-1.782-10.923a18.08 18.08 0 0 0 1.003-6.008c0-9.736-7.58-17.632-16.93-17.632-1.648 0-3.236.25-4.734.702 0 0-.135.593.255 2.216a14.206 14.206 0 0 1 4.48-.718c8.18 0 14.817 6.913 14.817 15.433S57.6 68.079 49.42 68.079c-6.368 0-11.806-4.182-13.904-10.065-.959-1.7-1.813 1.233-1.813 1.233z" fill="#13B0BF"/><path d="M23.244 16.38c-12.225 0-22.143 10.33-22.143 23.064 0 2.762.464 5.4 1.318 7.865L.082 61.57l12.81-1.748a21.353 21.353 0 0 0 10.338 2.669c12.225 0 22.143-10.33 22.143-23.064 0-12.717-9.903-23.047-22.128-23.047zm0 43.24c-10.697 0-19.371-9.034-19.371-20.176 0-11.141 8.674-20.176 19.371-20.176 10.698 0 19.373 9.035 19.373 20.176 0 11.142-8.675 20.176-19.372 20.176z" fill="#F0677F"/><path d="M49.764 47.202c1.473 0 2.667-1.244 2.667-2.778s-1.194-2.777-2.666-2.777c-1.473 0-2.667 1.243-2.667 2.777s1.194 2.778 2.666 2.778z" fill="#fff"/><path d="M47.08 48.51l-.404 2.169h1.198v10.08h-1.198v2.044h5.753V48.51H47.08z" fill="#EFEA66"/><path d="M14.945 30.253l4.87 3.589s2.022-3.714 4.404-2.107c1.753 1.186-.809 3.293-2.727 4.822-2.532 2.013-2.546 4.135-2.591 8.941 3.685.063 6.502-.03 6.502-.03V41.44s-.27-.952 2.202-2.637c2.472-1.67 5.11-4.853 3.147-9.347-1.963-4.494-9.184-4.494-12.211-2.809-3.026 1.686-3.596 3.605-3.596 3.605z" fill="#F34809"/><path d="M22.287 54.549c1.986 0 3.596-1.677 3.596-3.745 0-2.069-1.61-3.745-3.596-3.745s-3.596 1.676-3.596 3.745c0 2.068 1.61 3.745 3.596 3.745z" fill="#fff"/><path d="M42.257 9.719a27.613 27.613 0 0 0-7.91-3.902l-3.282 5.025c-.42.64-1.139.936-1.828.843-2.037-.281-4.09-.25-6.097.062-.465.078-.96 0-1.394-.312a1.827 1.827 0 0 1-.779-1.248L19.74 3.46c-.09-.5 0-1.03.284-1.467.285-.437.72-.733 1.214-.827 7.79-1.326 16.076.328 23.117 5.321 7.042 4.994 11.582 12.406 13.26 20.442.09.5 0 1.03-.285 1.467-.285.452-.72.733-1.199.811l-6.457 1.28c-.464.093-.974 0-1.408-.297-.42-.296-.69-.749-.78-1.232a23.43 23.43 0 0 0-2.187-5.93 2.062 2.062 0 0 1 .075-2.075l3.281-5.025a29.124 29.124 0 0 0-6.397-6.21z" fill="#4784DA"/></svg>