<svg width="109" height="124" fill="none" xmlns="http://www.w3.org/2000/svg"><path d="M12.644 113.016l-7.632-.81h7.758c-.06.24-.102.51-.126.81zm.612-2.538l-.27.792-7.47-.792h7.74zm-.612 3.456c.024.324.072.594.144.81l-7.614-.81h7.47zm2.52 2.538l-9.522-.81H13.4c.396.384.984.654 1.764.81zm-.558-7.722c-.276.18-.54.426-.792.738l-6.948-.738h7.74zm-9.27 8.64h6.732l-.27.792-6.462-.792zm-.306 1.746h6.462l-.27.792-6.192-.792zm7.812-2.304c1.008.276 1.926.414 2.754.414.84 0 1.524-.036 2.052-.108l.144-.9-1.494-.144c-1.14-.108-1.95-.366-2.43-.774-.468-.408-.702-.984-.702-1.728 0-.324.036-.684.108-1.08.276-1.536.78-2.592 1.512-3.168.732-.576 1.854-.864 3.366-.864 1.524 0 2.868.15 4.032.45l-.936 2.88c-1.044-.18-1.884-.27-2.52-.27-.624 0-1.164.03-1.62.09l-.144.882 1.206.126c1.224.132 2.094.426 2.61.882.516.444.774 1.044.774 1.8 0 .768-.162 1.56-.486 2.376-.18.42-.372.774-.576 1.062a2.717 2.717 0 0 1-.756.72c-.3.192-.576.342-.828.45a4.206 4.206 0 0 1-.972.216c-.552.084-1.236.126-2.052.126-1.488 0-2.838-.156-4.05-.468l1.008-2.97zm19.311.45h-2.232L29.453 120h-3.42l1.98-11.25h5.4c2.04 0 3.06.948 3.06 2.844 0 .9-.126 1.716-.378 2.448-.252.72-.534 1.296-.846 1.728-.3.42-.72.78-1.26 1.08-.528.288-1.14.432-1.836.432zm-.936-2.88c.408 0 .714-.042.918-.126.216-.096.354-.306.414-.63.156-.888.234-1.374.234-1.458 0-.228-.09-.378-.27-.45-.18-.072-.45-.108-.81-.108h-.792l-.486 2.772h.792zm-5.724 5.544l-7.632-.81h7.776l-.144.81zm.612-3.474l-7.632-.81h7.776l-.144.81zm.594-3.456l-7.614-.81h7.758l-.144.81zm.306-1.728l-7.614-.81h7.758l-.144.81zM25.8 118.2l-7.632-.81h7.776l-.144.81zm1.512-8.64l-7.614-.81h7.758l-.144.81zm-.918 5.184l-7.614-.81h7.758l-.144.81zm21.052 1.008h-3.42l-.234 1.368h4.194l-.504 2.88h-7.614l1.98-11.25h7.524l-.936 2.88h-3.69l-.252 1.512h3.42l-.468 2.61zm-8.118 4.194l-7.632-.81h7.776l-.144.81zm.612-3.474l-7.632-.81h7.776l-.144.81zm.306-1.728l-7.632-.81h7.776l-.144.81zm.306-1.728l-7.632-.81h7.776l-.144.81zm.306-1.728l-7.632-.81h7.758l-.126.81zm-1.224 6.912l-7.632-.81h7.776l-.144.81zm1.512-8.64l-7.614-.81h7.758l-.144.81zm11.567 4.734a4.122 4.122 0 0 0-.072.396l-7.074-.756h7.2l-.054.36zm-.198 1.368a5.885 5.885 0 0 0-.054.756l-7.092-.756h7.146zm.684-3.456l-.216.738-6.984-.738h7.2zm-.72 5.184c.048.336.09.588.126.756l-7.002-.756h6.876zm1.458-6.912a9.809 9.809 0 0 0-.36.72l-6.732-.72h7.092zm-.918 8.658c.156.276.336.498.54.666l-6.228-.666h5.688zm2.628-10.386a5.268 5.268 0 0 0-.81.594l-5.508-.594h6.318zm1.584 11.52c-1.512 0-2.598-.294-3.258-.882-.648-.588-.972-1.494-.972-2.718 0-.516.084-1.278.252-2.286.36-2.064.978-3.564 1.854-4.5.888-.936 2.286-1.404 4.194-1.404.444 0 .948.048 1.512.144.576.084.996.192 1.26.324l-1.008 2.754a8.673 8.673 0 0 0-1.998-.252c-.612 0-1.05.06-1.314.18s-.426.36-.486.72l-.828 4.716c.432.096.876.144 1.332.144.972 0 1.86-.144 2.664-.432l-.288 3.024c-.768.312-1.74.468-2.916.468zm17.561-8.64h-2.484L70.849 120h-3.42l1.458-8.37h-2.466l.522-2.88h8.37l-.522 2.88zm-7.92 8.316l-7.632-.81h7.776l-.144.81zm.612-3.474l-7.632-.81h7.776l-.144.81zm.306-1.728l-7.632-.81h7.776l-.144.81zm.306-1.728l-7.632-.81h7.776l-.144.81zm-.918 5.184l-7.632-.81h7.776l-.144.81zm-1.242-6.912l-7.632-.81h7.758l-.126.81zm.288-1.728l-7.614-.81h7.758l-.144.81zm19.45-.81c2.052 0 3.078.918 3.078 2.754 0 .756-.114 1.476-.342 2.16-.42 1.296-1.08 2.16-1.98 2.592L87.617 120h-3.762l-.828-3.348h-.738L81.713 120h-3.42l1.98-11.25h5.4zm-2.106 5.13c.408 0 .714-.042.918-.126.216-.096.36-.354.432-.774.084-.432.126-.696.126-.792 0-.24-.096-.39-.288-.45-.18-.072-.48-.108-.9-.108h-.684l-.396 2.25h.792zm-5.814 6.066l-7.632-.81h7.776l-.144.81zm.612-3.474l-7.632-.81h7.776l-.144.81zm.594-3.456l-7.614-.81h7.758l-.144.81zm.306-1.728l-7.614-.81h7.758l-.144.81zM78.06 118.2l-7.632-.81h7.776l-.144.81zm1.512-8.64l-7.614-.81h7.758l-.144.81zm-.918 5.184l-7.614-.81h7.758l-.144.81zm21.527 1.008h-3.42l-.234 1.368h4.194l-.504 2.88h-7.614l1.98-11.25h7.524l-.936 2.88h-3.69l-.252 1.512h3.42l-.468 2.61zm-8.118 4.194l-7.632-.81h7.776l-.144.81zm.612-3.474l-7.632-.81h7.776l-.144.81zm.306-1.728l-7.632-.81h7.776l-.144.81zm.306-1.728l-7.632-.81h7.776l-.144.81zm.306-1.728l-7.632-.81h7.758l-.126.81zm-1.224 6.912l-7.632-.81h7.776l-.144.81zm1.512-8.64l-7.614-.81h7.758l-.144.81z" fill="#000"/><path d="M81.819.645h-54.21L.465 47.6l27.144 46.956h54.21L108.924 47.6 81.819.645z" fill="url(#paint0_linear)"/><path d="M72.885 16.086h-17.94l-8.58-15.6h17.55l8.97 15.6z" fill="#DB0C66"/><path d="M63.917 31.686l-17.94.39 8.97-15.99h17.94l-8.97 15.6z" fill="#BD2F42"/><path d="M45.975 32.076l-9.36-15.6 9.75-15.99 8.58 15.6-8.97 15.99z" fill="#F06259"/><path d="M100.186 62.887h-17.94l-8.58-15.6 17.862.507 8.658 15.093z" fill="#7C2CFE"/><path d="M91.215 78.487l-17.94.39 8.97-15.99h17.94l-8.97 15.6z" fill="#5A41FB"/><path d="M73.275 78.877l-8.97-15.6 9.36-15.99 8.58 15.6-8.97 15.99z" fill="#434AFE"/><path d="M46.365 63.276l-17.94-.39-8.97-15.21 17.745.35 9.165 15.25z" fill="#4E9200"/><path d="M37.203 78.565l-18.603.468 9.828-16.146 17.94.39-9.165 15.288z" fill="#19C455"/><path d="M18.6 79.034L9.784 63.863l9.711-16.068 8.931 15.093L18.6 79.034z" fill="#2DA717"/><path d="M36.615 16.476l-8.97 15.21-17.94.117L18.52 16.32l18.096.156z" fill="#FF0"/><path d="M45.977 32.077l-8.775 15.95-9.555-16.34 8.97-15.21 9.36 15.6z" fill="#EBC14F"/><path d="M37.24 48.066l-17.863-.39L9.9 31.763l17.745-.078 9.594 16.38z" fill="#BEED2B"/><path d="M64.306 63.275l-9.36 15.21-17.745.078 9.165-15.288h17.94z" fill="#09CC9F"/><path d="M73.277 78.875l-8.385 15.64-9.945-16.03 9.36-15.21 8.97 15.6z" fill="#3B63FE"/><path d="M64.891 94.515l-18.057.04-9.633-15.99 17.745-.079 9.945 16.03z" fill="#00BAC4"/><path d="M91.216 16.788l-8.931 15.249-18.369-.351 8.97-15.6 18.33.702z" fill="#F20FB8"/><path d="M99.913 32.077l-8.424 15.6-9.165-15.678 8.931-15.249 8.658 15.327z" fill="#AF21FE"/><path d="M91.45 47.676l-17.862-.39-9.672-15.6 18.33.39 9.204 15.6z" fill="#D61AFF"/><defs><linearGradient id="paint0_linear" x1="17.671" y1="10.567" x2="91.738" y2="84.633" gradientUnits="userSpaceOnUse"><stop offset=".011" stop-color="#12C6C5"/><stop offset=".406" stop-color="#636AFB"/><stop offset=".871" stop-color="#FBD035"/></linearGradient></defs></svg>