<svg width="35" height="35" fill="none" xmlns="http://www.w3.org/2000/svg"><path d="M17.5 35C27.165 35 35 27.165 35 17.5S27.165 0 17.5 0 0 7.835 0 17.5 7.835 35 17.5 35z" fill="#007AB9"/><path d="M27.956 18.908v7.215h-4.183v-6.731c0-1.69-.604-2.845-2.119-2.845-1.155 0-1.842.777-2.145 1.53-.11.269-.139.642-.139 1.02v7.026h-4.183s.056-11.401 0-12.581h4.184v1.783l-.028.04h.028v-.04c.556-.856 1.547-2.079 3.77-2.079 2.752 0 4.815 1.799 4.815 5.662zM10.811 7.478c-1.431 0-2.367.939-2.367 2.173 0 1.208.909 2.174 2.312 2.174h.027c1.46 0 2.366-.966 2.366-2.174-.027-1.234-.907-2.173-2.338-2.173zM8.692 26.123h4.182V13.542H8.692v12.581z" fill="#F1F2F2"/></svg>