<svg width="106" height="91" fill="none" xmlns="http://www.w3.org/2000/svg"><rect x="33" y="7" width="45" height="80" rx="10" fill="#fff"/><path fill="#F4F3F3" d="M35.547 17.843H75.17v61.245H35.547z"/><path fill="#E0E0E0" d="M35.547 17.843H75.17v6.447H35.547z"/><path fill="#304FFE" d="M40.014 29.207h6.545v6.777h-6.545zM40.014 41.515h6.545v6.777h-6.545z"/><path fill="#448AFF" d="M55.091 33.262h12.273v12.707H55.091zM40.014 53.822h6.545v6.777h-6.545z"/><path fill="#304FFE" d="M40.014 65.544h6.545v6.777h-6.545z"/><path fill="#448AFF" d="M51.9 53.822h6.545v6.777H51.9zM51.9 65.544h6.545v6.777H51.9z"/><path fill="#304FFE" d="M63.787 53.822h6.545v6.777h-6.545zM63.787 65.544h6.545v6.777h-6.545z"/></svg>