<svg width="35" height="35" fill="none" xmlns="http://www.w3.org/2000/svg"><path d="M17.517 0C27.171 0 35 7.829 35 17.482c0 9.654-7.828 17.482-17.482 17.482-9.653 0-17.482-7.828-17.482-17.482C.035 7.83 7.864 0 17.517 0z" fill="#1DA1F2"/><path d="M13.461 26.362c8.245 0 12.759-6.832 12.759-12.759 0-.192 0-.388-.014-.58a9.113 9.113 0 0 0 2.237-2.322 8.904 8.904 0 0 1-2.573.707 4.495 4.495 0 0 0 1.972-2.48 8.971 8.971 0 0 1-2.846 1.088 4.49 4.49 0 0 0-6.343-.196 4.49 4.49 0 0 0-1.297 4.283 12.736 12.736 0 0 1-9.24-4.685 4.488 4.488 0 0 0 1.387 5.986 4.46 4.46 0 0 1-2.035-.56v.056a4.484 4.484 0 0 0 3.598 4.396 4.503 4.503 0 0 1-2.024.076 4.494 4.494 0 0 0 4.188 3.116 8.983 8.983 0 0 1-6.632 1.856 12.631 12.631 0 0 0 6.863 2.014" fill="#fff"/></svg>