<svg width="106" height="91" fill="none" xmlns="http://www.w3.org/2000/svg"><path d="M72.75 42c0 11.015-8.74 19.875-19.438 19.875-10.697 0-19.437-8.86-19.437-19.875s8.74-19.875 19.438-19.875c10.697 0 19.437 8.86 19.437 19.875z" stroke="#fff" stroke-width="4"/><circle cx="80.001" cy="68.25" r="5.875" stroke="#fff" stroke-width="4"/><circle cx="86.125" cy="11.375" r="9.375" stroke="#fff" stroke-width="4"/><circle cx="27.5" cy="16.625" r="5.875" stroke="#fff" stroke-width="4"/><circle cx="18.75" cy="75.25" r="6.75" stroke="#fff" stroke-width="4"/><path d="M62.25 80.063c0 5.013-3.882 8.937-8.5 8.937s-8.5-3.924-8.5-8.938c0-5.013 3.882-8.937 8.5-8.937s8.5 3.924 8.5 8.938zM31.875 21l7.875 7.875M78.25 17.5L66.875 28.875M74.706 63.114l-7.831-7.989M53.71 72.064l.04-11.689M25.049 70.876L39.75 56" stroke="#fff" stroke-width="4"/><g clip-path="url(#clip0)" fill="#634AD4"><path d="M50.51 36.08a3.243 3.243 0 0 1 3.24-3.24 3.243 3.243 0 0 1 3.24 3.24v2.569h1.34v-2.57a4.585 4.585 0 0 0-4.58-4.579 4.585 4.585 0 0 0-4.58 4.58v2.569h1.34v-2.57zM46.713 39.99V52.5h14.074V39.99H46.713zm7.707 6.615v2.393h-1.34v-2.393a1.564 1.564 0 1 1 1.34 0z"/></g><defs><clipPath id="clip0"><path fill="#fff" transform="translate(43.25 31.5)" d="M0 0h21v21H0z"/></clipPath></defs></svg>