<svg width="106" height="91" fill="none" xmlns="http://www.w3.org/2000/svg"><path fill="url(#paint0_linear)" d="M62.452 59.184h4.149v3.319h-4.149z"/><path fill="#fff" d="M40.879 15h4.149v3.319h-4.149zM27.602 29.935h4.149v3.319h-4.149zM40.879 24.127h4.149v3.319h-4.149zM28.195 15.237h9.601v3.2h-9.601zM23.929 42.974h9.601v3.2h-9.601zM21.795 37.64h9.601v3.2h-9.601zM33.53 54.709h11.735v3.2H33.53zM33.53 68.577h9.601v3.2H33.53zM21.795 15h4.149v3.319h-4.149zM33.768 50.56h4.149v3.319h-4.149zM33.53 63.243h4.149v3.319H33.53zM33.411 37.758h4.149v3.319h-4.149zM27.602 63.095h4.149v3.319h-4.149zM40.997 42.974h4.149v3.319h-4.149zM27.602 68.074h4.149v3.319h-4.149z"/><path fill-rule="evenodd" clip-rule="evenodd" d="M48.347 15v56.63h22.986c6.897-.052 12.096-1.465 15.597-4.24 3.526-2.8 5.29-6.975 5.29-12.524 0-3.06-.792-5.652-2.373-7.778-1.582-2.127-3.85-3.579-6.807-4.357 2.619-.985 4.603-2.515 5.951-4.589 1.348-2.074 2.022-4.577 2.022-7.507 0-5.082-1.905-8.958-5.717-11.629C81.51 16.336 75.974 15 68.688 15H48.347zm13.651 46.128V47.554h9.568c4.694.026 7.04 2.399 7.04 7.118 0 2.048-.661 3.643-1.983 4.784-1.323 1.115-3.216 1.672-5.679 1.672h-8.946zm7.118-22.52H62V25.54h6.69c3.059 0 5.276.532 6.65 1.595 1.374 1.037 2.061 2.748 2.061 5.134 0 2.074-.635 3.643-1.905 4.706-1.27 1.063-3.397 1.608-6.379 1.634zm-15.09-3.487h-4.15v3.32h4.15v-3.32zm1.659 0h4.148v3.32h-4.148v-3.32zm4.148-14.935h-4.148v3.319h4.148v-3.32zm-9.956 29.04h4.148v3.32h-4.148v-3.32zm38.997-.207h-4.148v3.32h4.148v-3.32zm-9.957 4.979h4.15v3.319h-4.15v-3.32zm4.15-30.7h-4.15v3.318h4.15v-3.319zm-4.15 13.275h4.15v3.32h-4.15v-3.32zM59.004 65.614h-4.15v3.32h4.15v-3.32z" fill="#fff"/><defs><linearGradient id="paint0_linear" x1="64.526" y1="59.184" x2="64.526" y2="62.503" gradientUnits="userSpaceOnUse"><stop stop-color="#fff"/><stop offset="1" stop-color="#fff"/></linearGradient></defs></svg>