<svg width="106" height="91" fill="none" xmlns="http://www.w3.org/2000/svg"><path d="M40.718 51.066c-1.258 0-2.18-.296-2.765-.887-.582-.592-.873-1.482-.873-2.672V42.91h1.871v4.766c0 .653.145 1.131.434 1.436.289.305.733.457 1.333.457.604 0 1.048-.152 1.333-.457.29-.305.434-.783.434-1.436V42.91h1.844v4.597c0 1.186-.291 2.077-.873 2.672-.581.59-1.494.886-2.738.886zM45.869 50.962V42.91h1.876v8.052H45.87zM51.487 52.268L54.38 42.17h1.827l-2.892 10.098h-1.827zM63.545 51.066c-1.258 0-2.18-.296-2.766-.887-.581-.592-.872-1.482-.872-2.672V42.91h1.871v4.766c0 .653.145 1.131.434 1.436.289.305.733.457 1.333.457.603 0 1.048-.152 1.333-.457.29-.305.434-.783.434-1.436V42.91h1.843v4.597c0 1.186-.29 2.077-.872 2.672-.582.59-1.494.886-2.738.886zM72.841 46.767l3.079 4.195h-2.09l-2.102-2.916-2.102 2.916h-2.041l3.056-4.168-2.859-3.884h2.09l1.888 2.6 1.882-2.6h2.025l-2.826 3.857zM45.625 27.41a3.107 3.107 0 1 1-6.214 0 3.107 3.107 0 0 1 6.214 0zM54.946 23.915a1.942 1.942 0 1 1-3.884 0 1.942 1.942 0 0 1 3.884 0zM32.42 67.415a1.942 1.942 0 1 1-3.884 0 1.942 1.942 0 0 1 3.884 0zM39.41 81.009a4.66 4.66 0 1 1-9.32 0 4.66 4.66 0 0 1 9.32 0zM26.982 73.63a1.942 1.942 0 1 1-3.884 0 1.942 1.942 0 0 1 3.884 0zM23.875 64.696a3.884 3.884 0 1 1-7.768 0 3.884 3.884 0 0 1 7.768 0zM94.562 41.393a4.66 4.66 0 1 1-9.321 0 4.66 4.66 0 0 1 9.321 0zM100 28.964a4.66 4.66 0 1 1-9.322 0 4.66 4.66 0 0 1 9.322 0zM49.509 66.638a2.719 2.719 0 1 1-5.437 0 2.719 2.719 0 0 1 5.437 0zM64.268 68.192a2.719 2.719 0 1 1-5.438 0 2.719 2.719 0 0 1 5.438 0zM71.259 25.857a3.107 3.107 0 1 1-6.214 0 3.107 3.107 0 0 1 6.214 0zM79.803 35.955a2.33 2.33 0 1 1-4.66 0 2.33 2.33 0 0 1 4.66 0zM50.286 14.982a4.66 4.66 0 1 1-9.322 0 4.66 4.66 0 0 1 9.322 0zM36.304 9.933a1.942 1.942 0 1 1-3.884 0 1.942 1.942 0 0 1 3.884 0zM50.286 4.496a3.496 3.496 0 1 1-6.991 0 3.496 3.496 0 0 1 6.99 0zM71.259 6.049a3.496 3.496 0 1 1-6.991 0 3.496 3.496 0 0 1 6.99 0zM29.313 53.433a4.272 4.272 0 1 1-8.545 0 4.272 4.272 0 0 1 8.544 0zM26.205 41.393a2.33 2.33 0 1 1-4.66 0 2.33 2.33 0 0 1 4.66 0zM30.866 29.353a3.496 3.496 0 1 1-6.991 0 3.496 3.496 0 0 1 6.991 0zM29.313 17.312a3.884 3.884 0 1 1-7.768 0 3.884 3.884 0 0 1 7.767 0zM21.545 32.46a4.272 4.272 0 1 1-8.545 0 4.272 4.272 0 0 1 8.545 0zM78.25 58.87a1.942 1.942 0 1 1-3.884 0 1.942 1.942 0 0 1 3.884 0zM79.027 72.076a1.942 1.942 0 1 1-3.884 0 1.942 1.942 0 0 1 3.884 0zM70.482 76.737a1.942 1.942 0 1 1-3.884 0 1.942 1.942 0 0 1 3.884 0zM58.053 78.29c0 1.93-1.738 3.496-3.883 3.496s-3.884-1.565-3.884-3.496c0-1.93 1.739-3.495 3.884-3.495 2.145 0 3.883 1.565 3.883 3.495zM70.482 85.281a5.05 5.05 0 1 1-10.098 0 5.05 5.05 0 0 1 10.098 0zM89.902 76.348c0 3.003-2.26 5.438-5.05 5.438-2.788 0-5.049-2.435-5.049-5.438 0-3.003 2.261-5.437 5.05-5.437 2.788 0 5.049 2.434 5.049 5.437zM73.59 16.536a3.107 3.107 0 1 1-6.215 0 3.107 3.107 0 0 1 6.214 0zM83.688 22.362a4.272 4.272 0 1 1-8.545 0 4.272 4.272 0 0 1 8.544 0z" fill="#fff"/><circle cx="56.112" cy="46.442" r="32.79" stroke="#fff" stroke-width="2"/><circle cx="56.5" cy="46.053" r="41.723" stroke="#fff" stroke-width="2"/><circle cx="56.889" cy="46.442" r="22.692" stroke="#fff" stroke-width="2"/></svg>