<svg width="107" height="92" fill="none" xmlns="http://www.w3.org/2000/svg"><path d="M62.073 65.226v6.109l9.656 9.656v4.335l2.956 2.956M70.546 65.817l7.882 7.882v15.37M79.414 65.817l10.247 10.247h10.247M48.477 65.226V73.7l5.123 5.123M37.046 42.17h-6.7L18.72 53.797H8.67M37.046 25.42h-10.05l-2.759-2.758v-2.956l1.183-1.183h5.714L33.5 16.16M36.85 34.288H23.843l-4.73 4.73h-3.94l-4.336-4.336v-2.759M43.944 55.964l-6.503 6.503h-7.488L27.785 60.3" stroke="#fff" stroke-width="2"/><path fill="#fff" d="M43.747 7.094h3.547v3.547h-3.547zM48.082 7.094h3.547v3.547h-3.547zM52.418 7.094h3.547v3.547h-3.547zM56.753 7.094H60.3v3.547h-3.547zM61.088 7.094h3.547v3.547h-3.547zM43.747 11.429h3.547v3.547h-3.547zM48.082 11.429h3.547v3.547h-3.547zM52.418 11.429h3.547v3.547h-3.547zM56.753 11.429H60.3v3.547h-3.547zM61.088 11.429h3.547v3.547h-3.547zM43.747 15.764h3.547v3.547h-3.547zM48.082 15.764h3.547v3.547h-3.547zM52.418 15.764h3.547v3.547h-3.547zM56.753 15.764H60.3v3.547h-3.547zM61.088 15.764h3.547v3.547h-3.547zM43.747 20.1h3.547v3.547h-3.547zM48.082 20.1h3.547v3.547h-3.547zM52.418 20.1h3.547v3.547h-3.547zM43.747 24.435h3.547v3.547h-3.547zM48.082 24.435h3.547v3.547h-3.547zM52.418 24.435h3.547v3.547h-3.547zM43.747 28.77h3.547v3.547h-3.547zM48.082 28.77h3.547v3.547h-3.547zM52.418 28.77h3.547v3.547h-3.547zM43.747 33.106h3.547v3.547h-3.547zM48.082 33.106h3.547v3.547h-3.547zM52.418 33.106h3.547v3.547h-3.547zM43.747 37.441h3.547v3.547h-3.547zM48.082 37.441h3.547v3.547h-3.547zM52.418 37.441h3.547v3.547h-3.547zM43.747 41.776h3.547v3.547h-3.547zM48.082 41.776h3.547v3.547h-3.547zM52.418 41.776h3.547v3.547h-3.547zM43.747 46.111h3.547v3.547h-3.547zM48.082 46.111h3.547v3.547h-3.547zM52.418 46.111h3.547v3.547h-3.547zM43.747 50.447h3.547v3.547h-3.547zM48.082 50.447h3.547v3.547h-3.547zM52.418 50.447h3.547v3.547h-3.547zM43.747 54.782h3.547v3.547h-3.547zM48.082 54.782h3.547v3.547h-3.547zM52.418 54.782h3.547v3.547h-3.547zM56.753 46.111H60.3v3.547h-3.547zM61.088 46.111h3.547v3.547h-3.547zM65.423 46.111h3.547v3.547h-3.547zM56.753 50.447H60.3v3.547h-3.547zM61.088 50.447h3.547v3.547h-3.547zM65.423 50.447h3.547v3.547h-3.547zM56.753 54.782H60.3v3.547h-3.547zM61.088 54.782h3.547v3.547h-3.547zM65.423 54.782h3.547v3.547h-3.547zM69.758 46.111h3.547v3.547h-3.547zM74.094 46.111h3.547v3.547h-3.547z"/><path opacity=".9" fill="#fff" d="M78.429 46.111h3.547v3.547h-3.547z"/><path fill="#fff" d="M69.758 50.447h3.547v3.547h-3.547zM74.094 50.447h3.547v3.547h-3.547zM78.429 50.447h3.547v3.547h-3.547zM69.758 54.782h3.547v3.547h-3.547zM74.094 54.782h3.547v3.547h-3.547zM78.429 54.782h3.547v3.547h-3.547zM82.765 46.111h3.547v3.547h-3.547zM87.1 46.111h3.547v3.547H87.1z"/><path opacity=".9" fill="#fff" d="M82.765 50.447h3.547v3.547h-3.547z"/><path fill="#fff" d="M87.1 50.447h3.547v3.547H87.1zM82.765 54.782h3.547v3.547h-3.547z"/><path opacity=".9" fill="#fff" d="M87.1 54.782h3.547v3.547H87.1z"/><path fill="#fff" d="M65.423 7.094h3.547v3.547h-3.547zM69.758 7.094h3.547v3.547h-3.547zM74.094 7.094h3.547v3.547h-3.547zM65.423 11.429h3.547v3.547h-3.547zM69.758 11.429h3.547v3.547h-3.547zM74.094 11.429h3.547v3.547h-3.547zM65.423 15.764h3.547v3.547h-3.547zM69.758 15.764h3.547v3.547h-3.547zM74.094 15.764h3.547v3.547h-3.547zM78.429 7.094h3.547v3.547h-3.547zM82.765 7.094h3.547v3.547h-3.547zM87.1 7.094h3.547v3.547H87.1zM47.294 0h3.153v3.547h-3.153zM51.629 0h3.153v3.547h-3.153zM55.965 0h3.153v3.547h-3.153zM60.3 0h3.547v3.547H60.3zM64.635 0h3.547v3.547h-3.547zM68.97 0h3.547v3.547H68.97zM73.305 0h3.547v3.547h-3.547zM77.641 0h3.547v3.547h-3.547zM81.977 0h3.547v3.547h-3.547zM86.311 0h3.547v3.547h-3.547zM96.952 10.641v3.153h-3.547v-3.153zM96.952 14.976v3.153h-3.547v-3.153zM96.952 19.311v3.154h-3.547V19.31zM96.952 23.647v3.547h-3.547v-3.547zM96.952 27.982v3.547h-3.547v-3.547zM96.953 32.317v3.547h-3.547v-3.547zM96.952 36.653V40.2h-3.547v-3.547zM96.952 40.988v3.547h-3.547v-3.547zM96.952 45.323v3.547h-3.547v-3.547zM96.953 49.658v3.547h-3.547v-3.547zM40.2 10.64v3.154h-3.548V10.64zM40.2 14.976v3.153h-3.547v-3.153zM40.199 19.311v3.153h-3.547v-3.153zM40.2 23.647v3.547h-3.548v-3.547zM40.2 27.982v3.547h-3.548v-3.547zM40.2 32.317v3.547h-3.547v-3.547zM40.199 36.652V40.2h-3.547v-3.547zM40.2 40.988v3.547h-3.548v-3.547zM40.2 45.323v3.547h-3.548v-3.547zM40.2 49.658v3.547h-3.547v-3.547zM46.899 62.664h3.547v3.547h-3.547zM51.629 62.664h3.153v3.547h-3.153zM55.965 62.664h3.153v3.547h-3.153zM60.3 62.664h3.547v3.547H60.3zM64.635 62.664h3.547v3.547h-3.547zM68.97 62.664h3.547v3.547H68.97zM73.305 62.664h3.547v3.547h-3.547zM77.641 62.664h3.547v3.547h-3.547zM81.977 62.664h3.547v3.547h-3.547zM86.311 62.664h3.547v3.547h-3.547zM78.429 11.429h3.547v3.547h-3.547zM82.765 11.429h3.547v3.547h-3.547zM87.1 11.429h3.547v3.547H87.1zM78.429 15.764h3.547v3.547h-3.547zM82.765 15.764h3.547v3.547h-3.547zM87.1 15.764h3.547v3.547H87.1zM78.429 20.1h3.547v3.547h-3.547zM82.765 20.1h3.547v3.547h-3.547zM87.1 20.1h3.547v3.547H87.1zM78.429 24.435h3.547v3.547h-3.547zM82.765 24.435h3.547v3.547h-3.547zM87.1 24.435h3.547v3.547H87.1zM78.429 28.77h3.547v3.547h-3.547zM82.765 28.77h3.547v3.547h-3.547zM87.1 28.77h3.547v3.547H87.1zM78.429 33.106h3.547v3.547h-3.547zM82.765 33.106h3.547v3.547h-3.547zM87.1 33.106h3.547v3.547H87.1zM78.429 37.441h3.547v3.547h-3.547zM82.765 37.441h3.547v3.547h-3.547zM87.1 37.441h3.547v3.547H87.1zM78.429 41.776h3.547v3.547h-3.547zM82.765 41.776h3.547v3.547h-3.547zM87.1 41.776h3.547v3.547H87.1z"/><rect x="58.329" y="23.647" width="17.341" height="17.341" rx="3" fill="#fff"/><path fill="#fff" d="M5.123 23.647h9.853V33.5H5.123zM0 49.658h9.853v9.853H0zM49.265 77.641h9.853v9.853h-9.853zM96.952 70.941h9.853v9.853h-9.853zM31.135 12.612h3.941v3.941h-3.941zM25.224 56.753h3.941v3.941h-3.941zM72.911 87.1h3.941v3.941h-3.941zM77.247 85.129h3.941v3.941h-3.941z"/></svg>