<svg width="106" height="91" viewBox="0 0 106 91" fill="none" xmlns="http://www.w3.org/2000/svg">
<path d="M40.7182 51.0655C39.4599 51.0655 38.538 50.7698 37.9528 50.1786C37.3711 49.5874 37.0803 48.6969 37.0803 47.5071V42.9096H38.9514V47.6758C38.9514 48.3287 39.0959 48.8075 39.3849 49.1122C39.6738 49.4169 40.1183 49.5692 40.7182 49.5692C41.3218 49.5692 41.7662 49.4169 42.0515 49.1122C42.3405 48.8075 42.485 48.3287 42.485 47.6758V42.9096H44.3286V47.5071C44.3286 48.6933 44.0378 49.5837 43.4562 50.1786C42.8746 50.7698 41.9619 51.0655 40.7182 51.0655Z" fill="white"/>
<path d="M45.8689 50.9621V42.9096H47.7454V50.9621H45.8689Z" fill="white"/>
<path d="M51.4874 52.2679L54.379 42.1697H56.2062L53.3145 52.2679H51.4874Z" fill="white"/>
<path d="M63.545 51.0655C62.2866 51.0655 61.3648 50.7698 60.7795 50.1786C60.1979 49.5874 59.9071 48.6969 59.9071 47.5071V42.9096H61.7782V47.6758C61.7782 48.3287 61.9226 48.8075 62.2116 49.1122C62.5006 49.4169 62.9451 49.5692 63.545 49.5692C64.1485 49.5692 64.593 49.4169 64.8783 49.1122C65.1673 48.8075 65.3118 48.3287 65.3118 47.6758V42.9096H67.1554V47.5071C67.1554 48.6933 66.8646 49.5837 66.283 50.1786C65.7014 50.7698 64.7887 51.0655 63.545 51.0655Z" fill="white"/>
<path d="M72.8414 46.7672L75.9196 50.9621H73.8291L71.7275 48.0458L69.626 50.9621H67.5849L70.6411 46.7944L67.7824 42.9096H69.8729L71.7605 45.5104L73.6425 42.9096H75.6672L72.8414 46.7672Z" fill="white"/>
<path d="M45.6249 27.4106C45.6249 29.1266 44.2338 30.5178 42.5178 30.5178C40.8018 30.5178 39.4106 29.1266 39.4106 27.4106C39.4106 25.6946 40.8018 24.3035 42.5178 24.3035C44.2338 24.3035 45.6249 25.6946 45.6249 27.4106Z" fill="white"/>
<path d="M54.9464 23.9151C54.9464 24.9876 54.077 25.8571 53.0045 25.8571C51.9319 25.8571 51.0625 24.9876 51.0625 23.9151C51.0625 22.8426 51.9319 21.9731 53.0045 21.9731C54.077 21.9731 54.9464 22.8426 54.9464 23.9151Z" fill="white"/>
<path d="M32.4196 67.4151C32.4196 68.4876 31.5501 69.3571 30.4776 69.3571C29.4051 69.3571 28.5356 68.4876 28.5356 67.4151C28.5356 66.3426 29.4051 65.4731 30.4776 65.4731C31.5501 65.4731 32.4196 66.3426 32.4196 67.4151Z" fill="white"/>
<path d="M39.4108 81.0089C39.4108 83.5829 37.3241 85.6696 34.7501 85.6696C32.176 85.6696 30.0894 83.5829 30.0894 81.0089C30.0894 78.4348 32.176 76.3481 34.7501 76.3481C37.3241 76.3481 39.4108 78.4348 39.4108 81.0089Z" fill="white"/>
<path d="M26.9821 73.6295C26.9821 74.702 26.1126 75.5714 25.0401 75.5714C23.9676 75.5714 23.0981 74.702 23.0981 73.6295C23.0981 72.5569 23.9676 71.6875 25.0401 71.6875C26.1126 71.6875 26.9821 72.5569 26.9821 73.6295Z" fill="white"/>
<path d="M23.875 64.6964C23.875 66.8415 22.1361 68.5804 19.9911 68.5804C17.8461 68.5804 16.1072 66.8415 16.1072 64.6964C16.1072 62.5514 17.8461 60.8125 19.9911 60.8125C22.1361 60.8125 23.875 62.5514 23.875 64.6964Z" fill="white"/>
<path d="M94.5624 41.3929C94.5624 43.9669 92.4757 46.0536 89.9017 46.0536C87.3276 46.0536 85.241 43.9669 85.241 41.3929C85.241 38.8189 87.3276 36.7322 89.9017 36.7322C92.4757 36.7322 94.5624 38.8189 94.5624 41.3929Z" fill="white"/>
<path d="M99.9999 28.9642C99.9999 31.5382 97.9132 33.6249 95.3392 33.6249C92.7651 33.6249 90.6785 31.5382 90.6785 28.9642C90.6785 26.3901 92.7651 24.3035 95.3392 24.3035C97.9132 24.3035 99.9999 26.3901 99.9999 28.9642Z" fill="white"/>
<path d="M49.509 66.6384C49.509 68.14 48.2918 69.3572 46.7903 69.3572C45.2888 69.3572 44.0715 68.14 44.0715 66.6384C44.0715 65.1369 45.2888 63.9197 46.7903 63.9197C48.2918 63.9197 49.509 65.1369 49.509 66.6384Z" fill="white"/>
<path d="M64.2678 68.1919C64.2678 69.6934 63.0506 70.9106 61.5491 70.9106C60.0475 70.9106 58.8303 69.6934 58.8303 68.1919C58.8303 66.6904 60.0475 65.4731 61.5491 65.4731C63.0506 65.4731 64.2678 66.6904 64.2678 68.1919Z" fill="white"/>
<path d="M71.259 25.8571C71.259 27.5732 69.8678 28.9643 68.1518 28.9643C66.4358 28.9643 65.0447 27.5732 65.0447 25.8571C65.0447 24.1411 66.4358 22.75 68.1518 22.75C69.8678 22.75 71.259 24.1411 71.259 25.8571Z" fill="white"/>
<path d="M79.8035 35.9554C79.8035 37.2424 78.7602 38.2857 77.4732 38.2857C76.1862 38.2857 75.1428 37.2424 75.1428 35.9554C75.1428 34.6683 76.1862 33.625 77.4732 33.625C78.7602 33.625 79.8035 34.6683 79.8035 35.9554Z" fill="white"/>
<path d="M50.2858 14.9822C50.2858 17.5563 48.1991 19.643 45.6251 19.643C43.051 19.643 40.9644 17.5563 40.9644 14.9822C40.9644 12.4082 43.051 10.3215 45.6251 10.3215C48.1991 10.3215 50.2858 12.4082 50.2858 14.9822Z" fill="white"/>
<path d="M36.3036 9.93293C36.3036 11.0054 35.4342 11.8749 34.3616 11.8749C33.2891 11.8749 32.4197 11.0054 32.4197 9.93293C32.4197 8.86041 33.2891 7.99097 34.3616 7.99097C35.4342 7.99097 36.3036 8.86041 36.3036 9.93293Z" fill="white"/>
<path d="M50.2857 4.49554C50.2857 6.42607 48.7207 7.99107 46.7902 7.99107C44.8597 7.99107 43.2947 6.42607 43.2947 4.49554C43.2947 2.565 44.8597 1 46.7902 1C48.7207 1 50.2857 2.565 50.2857 4.49554Z" fill="white"/>
<path d="M71.2589 6.049C71.2589 7.97953 69.6939 9.54454 67.7634 9.54454C65.8328 9.54454 64.2678 7.97953 64.2678 6.049C64.2678 4.11847 65.8328 2.55347 67.7634 2.55347C69.6939 2.55347 71.2589 4.11847 71.2589 6.049Z" fill="white"/>
<path d="M29.3125 53.433C29.3125 55.7925 27.3997 57.7053 25.0401 57.7053C22.6806 57.7053 20.7678 55.7925 20.7678 53.433C20.7678 51.0734 22.6806 49.1606 25.0401 49.1606C27.3997 49.1606 29.3125 51.0734 29.3125 53.433Z" fill="white"/>
<path d="M26.2054 41.3929C26.2054 42.6799 25.1621 43.7232 23.875 43.7232C22.588 43.7232 21.5447 42.6799 21.5447 41.3929C21.5447 40.1058 22.588 39.0625 23.875 39.0625C25.1621 39.0625 26.2054 40.1058 26.2054 41.3929Z" fill="white"/>
<path d="M30.8661 29.3527C30.8661 31.2832 29.3011 32.8482 27.3705 32.8482C25.44 32.8482 23.875 31.2832 23.875 29.3527C23.875 27.4222 25.44 25.8572 27.3705 25.8572C29.3011 25.8572 30.8661 27.4222 30.8661 29.3527Z" fill="white"/>
<path d="M29.3125 17.3124C29.3125 19.4574 27.5736 21.1963 25.4286 21.1963C23.2836 21.1963 21.5447 19.4574 21.5447 17.3124C21.5447 15.1674 23.2836 13.4285 25.4286 13.4285C27.5736 13.4285 29.3125 15.1674 29.3125 17.3124Z" fill="white"/>
<path d="M21.5446 32.4598C21.5446 34.8194 19.6319 36.7321 17.2723 36.7321C14.9128 36.7321 13 34.8194 13 32.4598C13 30.1003 14.9128 28.1875 17.2723 28.1875C19.6319 28.1875 21.5446 30.1003 21.5446 32.4598Z" fill="white"/>
<path d="M78.2499 58.8704C78.2499 59.9429 77.3804 60.8124 76.3079 60.8124C75.2354 60.8124 74.366 59.9429 74.366 58.8704C74.366 57.7979 75.2354 56.9285 76.3079 56.9285C77.3804 56.9285 78.2499 57.7979 78.2499 58.8704Z" fill="white"/>
<path d="M79.0268 72.076C79.0268 73.1485 78.1573 74.018 77.0848 74.018C76.0123 74.018 75.1428 73.1485 75.1428 72.076C75.1428 71.0035 76.0123 70.134 77.0848 70.134C78.1573 70.134 79.0268 71.0035 79.0268 72.076Z" fill="white"/>
<path d="M70.4821 76.7366C70.4821 77.8092 69.6126 78.6786 68.5401 78.6786C67.4676 78.6786 66.5981 77.8092 66.5981 76.7366C66.5981 75.6641 67.4676 74.7947 68.5401 74.7947C69.6126 74.7947 70.4821 75.6641 70.4821 76.7366Z" fill="white"/>
<path d="M58.0535 78.2902C58.0535 80.2207 56.3146 81.7857 54.1696 81.7857C52.0245 81.7857 50.2856 80.2207 50.2856 78.2902C50.2856 76.3597 52.0245 74.7947 54.1696 74.7947C56.3146 74.7947 58.0535 76.3597 58.0535 78.2902Z" fill="white"/>
<path d="M70.4822 85.2813C70.4822 88.0698 68.2217 90.3304 65.4331 90.3304C62.6446 90.3304 60.384 88.0698 60.384 85.2813C60.384 82.4927 62.6446 80.2322 65.4331 80.2322C68.2217 80.2322 70.4822 82.4927 70.4822 85.2813Z" fill="white"/>
<path d="M89.9017 76.3481C89.9017 79.3512 87.6411 81.7856 84.8526 81.7856C82.064 81.7856 79.8035 79.3512 79.8035 76.3481C79.8035 73.3451 82.064 70.9106 84.8526 70.9106C87.6411 70.9106 89.9017 73.3451 89.9017 76.3481Z" fill="white"/>
<path d="M73.5893 16.5356C73.5893 18.2516 72.1982 19.6428 70.4821 19.6428C68.7661 19.6428 67.375 18.2516 67.375 16.5356C67.375 14.8196 68.7661 13.4285 70.4821 13.4285C72.1982 13.4285 73.5893 14.8196 73.5893 16.5356Z" fill="white"/>
<path d="M83.6875 22.3617C83.6875 24.7212 81.7747 26.634 79.4151 26.634C77.0556 26.634 75.1428 24.7212 75.1428 22.3617C75.1428 20.0021 77.0556 18.0894 79.4151 18.0894C81.7747 18.0894 83.6875 20.0021 83.6875 22.3617Z" fill="white"/>
<circle cx="56.1117" cy="46.442" r="32.7902" stroke="white" stroke-width="2"/>
<circle cx="56.5001" cy="46.0535" r="41.7232" stroke="white" stroke-width="2"/>
<circle cx="56.8885" cy="46.442" r="22.692" stroke="white" stroke-width="2"/>
</svg>
