<svg width="35" height="35" viewBox="0 0 35 35" fill="none" xmlns="http://www.w3.org/2000/svg">
<path d="M17.4821 34.9643C7.8285 34.9643 0 27.1358 0 17.4821C0 7.8285 7.8285 0 17.4821 0C27.1358 0 34.9643 7.8285 34.9643 17.4821C34.9643 27.1358 27.1358 34.9643 17.4821 34.9643Z" fill="#3B579D"/>
<path d="M22.0263 34.9644V21.4227H26.5717L27.2535 16.1466H22.0263V12.776C22.0263 11.2481 22.4494 10.2062 24.6416 10.2062H27.4353V5.48949C26.9528 5.42656 25.292 5.2832 23.3619 5.2832C19.3341 5.2832 16.5754 7.74119 16.5754 12.2586V16.1501H12.0195V21.4262H16.5754V34.9644H22.0263Z" fill="white"/>
</svg>
