<svg width="68" height="71" viewBox="0 0 68 71" fill="none" xmlns="http://www.w3.org/2000/svg">
<path d="M33.7031 59.2472C36.2052 65.7229 42.3029 70.295 49.4195 70.295C52.2811 70.295 54.9779 69.5616 57.3301 68.2508L67.1284 69.5772L65.3456 58.6542C66.0048 56.7817 66.3494 54.7531 66.3494 52.6465C66.3494 42.9095 58.7684 35.0137 49.4195 35.0137C47.7714 35.0137 46.1833 35.2633 44.6851 35.7159C44.6851 35.7159 44.5502 36.3088 44.9398 37.9317C46.3481 37.4635 47.8613 37.2139 49.4195 37.2139C57.5998 37.2139 64.2369 44.1266 64.2369 52.6465C64.2369 61.1665 57.5998 68.0792 49.4195 68.0792C43.052 68.0792 37.6135 63.8972 35.516 58.0144C34.5571 56.3136 33.7031 59.2472 33.7031 59.2472Z" fill="#13B0BF"/>
<path d="M23.2445 16.3809C11.0191 16.3809 1.10082 26.7109 1.10082 39.444C1.10082 42.206 1.56527 44.8431 2.41926 47.3086L0.0820312 61.5709L12.8918 59.8233C15.9782 61.5241 19.499 62.4916 23.2296 62.4916C35.455 62.4916 45.3733 52.1616 45.3733 39.4284C45.3733 26.7109 35.47 16.3809 23.2445 16.3809ZM23.2445 59.6204C12.5472 59.6204 3.87253 50.5855 3.87253 39.444C3.87253 28.3026 12.5472 19.2677 23.2445 19.2677C33.9418 19.2677 42.6165 28.3026 42.6165 39.444C42.6165 50.5855 33.9418 59.6204 23.2445 59.6204Z" fill="#F0677F"/>
<path d="M49.7645 47.2016C51.2374 47.2016 52.4314 45.9581 52.4314 44.4241C52.4314 42.89 51.2374 41.6465 49.7645 41.6465C48.2916 41.6465 47.0977 42.89 47.0977 44.4241C47.0977 45.9581 48.2916 47.2016 49.7645 47.2016Z" fill="white"/>
<path d="M47.0803 48.5098L46.6758 50.6788H47.8744V60.7591H46.6758V62.8033H52.429V48.5098H47.0803Z" fill="#EFEA66"/>
<path d="M14.9453 30.2529L19.8145 33.8419C19.8145 33.8419 21.8371 30.1281 24.2193 31.7354C25.9722 32.9213 23.4103 35.0279 21.4925 36.5571C18.9605 38.57 18.9456 40.6922 18.9006 45.4984C22.5862 45.5608 25.4029 45.4671 25.4029 45.4671C25.4029 41.8157 25.4029 41.4412 25.4029 41.4412C25.4029 41.4412 25.1332 40.4894 27.6053 38.8041C30.0774 37.1344 32.7142 33.9512 30.7516 29.4571C28.7889 24.9631 21.5675 24.9631 18.541 26.6484C15.5146 28.3336 14.9453 30.2529 14.9453 30.2529Z" fill="#F34809"/>
<path d="M22.2871 54.5487C24.273 54.5487 25.8829 52.872 25.8829 50.8036C25.8829 48.7353 24.273 47.0586 22.2871 47.0586C20.3013 47.0586 18.6914 48.7353 18.6914 50.8036C18.6914 52.872 20.3013 54.5487 22.2871 54.5487Z" fill="white"/>
<path d="M42.2568 9.7185C39.7698 7.95521 37.1029 6.66006 34.3462 5.81742L31.0651 10.842C30.6456 11.4818 29.9265 11.7783 29.2373 11.6846C27.1997 11.4038 25.1471 11.435 23.1395 11.7471C22.6751 11.8251 22.1807 11.7471 21.7462 11.435C21.3117 11.1385 21.042 10.686 20.9671 10.1866L19.7386 3.46117C19.6487 2.96184 19.7386 2.43129 20.0232 1.99437C20.3079 1.55745 20.7424 1.26097 21.2368 1.16734C29.0275 -0.159026 37.3127 1.49503 44.3543 6.48841C51.396 11.4818 55.9356 18.8938 57.6136 26.9301C57.7035 27.4294 57.6136 27.9599 57.3289 28.3969C57.0443 28.8494 56.6098 29.1303 56.1303 29.2083L49.673 30.4878C49.2086 30.5815 48.6992 30.4878 48.2647 30.1914C47.8452 29.8949 47.5755 29.4423 47.4856 28.9586C47.0212 26.8988 46.302 24.9015 45.2982 23.029C44.9536 22.4048 44.9686 21.5934 45.3731 20.9536L48.6542 15.929C46.8863 13.5884 44.7439 11.4818 42.2568 9.7185Z" fill="#4784DA"/>
</svg>
