<svg width="106" height="91" viewBox="0 0 106 91" fill="none" xmlns="http://www.w3.org/2000/svg">
<path d="M72.75 42C72.75 53.0149 64.0096 61.875 53.3125 61.875C42.6154 61.875 33.875 53.0149 33.875 42C33.875 30.9851 42.6154 22.125 53.3125 22.125C64.0096 22.125 72.75 30.9851 72.75 42Z" stroke="white" stroke-width="4"/>
<circle cx="80.001" cy="68.25" r="5.875" stroke="white" stroke-width="4"/>
<circle cx="86.125" cy="11.375" r="9.375" stroke="white" stroke-width="4"/>
<circle cx="27.5" cy="16.625" r="5.875" stroke="white" stroke-width="4"/>
<circle cx="18.75" cy="75.2501" r="6.75" stroke="white" stroke-width="4"/>
<path d="M62.25 80.0625C62.25 85.0763 58.3683 89 53.75 89C49.1317 89 45.25 85.0763 45.25 80.0625C45.25 75.0487 49.1317 71.125 53.75 71.125C58.3683 71.125 62.25 75.0487 62.25 80.0625Z" stroke="white" stroke-width="4"/>
<path d="M31.875 21.0001L39.75 28.8751" stroke="white" stroke-width="4"/>
<path d="M78.25 17.5L66.875 28.875" stroke="white" stroke-width="4"/>
<path d="M74.7061 63.1136L66.8746 55.125" stroke="white" stroke-width="4"/>
<path d="M53.71 72.0637L53.7501 60.3751" stroke="white" stroke-width="4"/>
<path d="M25.0488 70.8755L39.7504 56.0002" stroke="white" stroke-width="4"/>
<g clip-path="url(#clip0)">
<path d="M50.5103 36.0798C50.5103 34.2936 51.9635 32.8404 53.7497 32.8404C55.5359 32.8404 56.9891 34.2936 56.9891 36.0798V38.6489H58.3295V36.0798C58.3295 33.5545 56.275 31.5 53.7497 31.5C51.2244 31.5 49.1699 33.5545 49.1699 36.0798V38.6489H50.5103V36.0798Z" fill="#634AD4"/>
<path d="M46.7129 39.9893V52.4999H60.7874V39.9893H46.7129ZM54.4203 46.6046V48.9976H53.0799V46.6046C52.5516 46.3536 52.1863 45.8153 52.1863 45.1915C52.1863 44.3278 52.8864 43.6277 53.7501 43.6277C54.6138 43.6277 55.314 44.3278 55.314 45.1915C55.314 45.8153 54.9486 46.3536 54.4203 46.6046Z" fill="#634AD4"/>
</g>
<defs>
<clipPath id="clip0">
<rect width="21" height="21" fill="white" transform="translate(43.25 31.5)"/>
</clipPath>
</defs>
</svg>
