<svg width="106" height="91" viewBox="0 0 106 91" fill="none" xmlns="http://www.w3.org/2000/svg">
<rect x="62.4521" y="59.1836" width="4.1487" height="3.31896" fill="url(#paint0_linear)"/>
<rect x="40.8789" y="15" width="4.1487" height="3.31896" fill="white"/>
<rect x="27.6025" y="29.9353" width="4.1487" height="3.31896" fill="white"/>
<rect x="40.8789" y="24.127" width="4.1487" height="3.31896" fill="white"/>
<rect x="28.1953" y="15.2371" width="9.60127" height="3.20042" fill="white"/>
<rect x="23.9287" y="42.974" width="9.60127" height="3.20042" fill="white"/>
<rect x="21.7949" y="37.64" width="9.60127" height="3.20042" fill="white"/>
<rect x="33.5303" y="54.7089" width="11.7349" height="3.20042" fill="white"/>
<rect x="33.5303" y="68.5774" width="9.60127" height="3.20042" fill="white"/>
<rect x="21.7949" y="15" width="4.1487" height="3.31896" fill="white"/>
<rect x="33.7676" y="50.5602" width="4.1487" height="3.31896" fill="white"/>
<rect x="33.5303" y="63.2434" width="4.1487" height="3.31896" fill="white"/>
<rect x="33.4111" y="37.7584" width="4.1487" height="3.31896" fill="white"/>
<rect x="27.6025" y="63.0952" width="4.1487" height="3.31896" fill="white"/>
<rect x="40.9971" y="42.974" width="4.1487" height="3.31896" fill="white"/>
<rect x="27.6025" y="68.0737" width="4.1487" height="3.31896" fill="white"/>
<path fill-rule="evenodd" clip-rule="evenodd" d="M48.3467 15V71.6297H71.3331C78.2303 71.5779 83.4291 70.1647 86.9296 67.3903C90.456 64.5899 92.2192 60.4153 92.2192 54.8664C92.2192 51.8067 91.4283 49.2138 89.8466 47.0876C88.2649 44.9614 85.9961 43.5093 83.0402 42.7315C85.659 41.7461 87.6426 40.2163 88.991 38.142C90.3393 36.0676 91.0134 33.5654 91.0134 30.6354C91.0134 25.5532 89.1076 21.6768 85.296 19.0061C81.5103 16.3354 75.9744 15 68.6883 15H48.3467ZM61.9985 61.1283V47.5543H71.5664C76.2596 47.5802 78.6062 49.9528 78.6062 54.6719C78.6062 56.7203 77.945 58.315 76.6226 59.4559C75.3003 60.5709 73.4074 61.1283 70.9441 61.1283H61.9985ZM69.1161 38.6087H61.9985V25.5403H68.6883C71.7479 25.5403 73.9649 26.0718 75.3391 27.1349C76.7134 28.1721 77.4005 29.8835 77.4005 32.269C77.4005 34.3433 76.7653 35.912 75.4947 36.9751C74.2242 38.0382 72.098 38.5828 69.1161 38.6087ZM54.0252 35.1212H49.8765V38.4401H54.0252V35.1212ZM55.6847 35.1212H59.8334V38.4401H55.6847V35.1212ZM59.8334 20.1859H55.6847V23.5048H59.8334V20.1859ZM49.8765 49.2268H54.0252V52.5457H49.8765V49.2268ZM88.8743 49.0193H84.7256V52.3383H88.8743V49.0193ZM78.9174 53.9978H83.0661V57.3167H78.9174V53.9978ZM83.0661 23.2974H78.9174V26.6164H83.0661V23.2974ZM78.9174 36.5732H83.0661V39.8922H78.9174V36.5732ZM59.0036 65.6141H54.8549V68.9331H59.0036V65.6141Z" fill="white"/>
<defs>
<linearGradient id="paint0_linear" x1="64.5265" y1="59.1836" x2="64.5265" y2="62.5026" gradientUnits="userSpaceOnUse">
<stop stop-color="white"/>
<stop offset="1" stop-color="white"/>
</linearGradient>
</defs>
</svg>
