<svg width="107" height="92" viewBox="0 0 107 92" fill="none" xmlns="http://www.w3.org/2000/svg">
<path d="M62.0732 65.2261V71.3349L71.7291 80.9907V85.3259L74.6849 88.2818" stroke="white" stroke-width="2"/>
<path d="M70.5459 65.8171L78.4282 73.6994V89.0699" stroke="white" stroke-width="2"/>
<path d="M79.4141 65.8171L89.6611 76.0641H99.908" stroke="white" stroke-width="2"/>
<path d="M48.4766 65.2261V73.6995L53.6001 78.823" stroke="white" stroke-width="2"/>
<path d="M37.0462 42.1703H30.3463L18.7199 53.7967H8.66992" stroke="white" stroke-width="2"/>
<path d="M37.046 25.4204H26.9961L24.2373 22.6616V19.7057L25.4196 18.5234H31.1343L33.499 16.1587" stroke="white" stroke-width="2"/>
<path d="M36.8495 34.288H23.8437L19.1143 39.0174H15.1732L10.8379 34.6821V31.9233" stroke="white" stroke-width="2"/>
<path d="M43.9439 55.9644L37.441 62.4673H29.9528L27.7852 60.2996" stroke="white" stroke-width="2"/>
<rect x="43.7471" y="7.09412" width="3.54704" height="3.54704" fill="white"/>
<rect x="48.082" y="7.09412" width="3.54704" height="3.54704" fill="white"/>
<rect x="52.418" y="7.09412" width="3.54704" height="3.54704" fill="white"/>
<rect x="56.7529" y="7.09412" width="3.54704" height="3.54704" fill="white"/>
<rect x="61.0879" y="7.09412" width="3.54704" height="3.54704" fill="white"/>
<rect x="43.7471" y="11.4293" width="3.54704" height="3.54704" fill="white"/>
<rect x="48.082" y="11.4293" width="3.54704" height="3.54704" fill="white"/>
<rect x="52.418" y="11.4293" width="3.54704" height="3.54704" fill="white"/>
<rect x="56.7529" y="11.4293" width="3.54704" height="3.54704" fill="white"/>
<rect x="61.0879" y="11.4293" width="3.54704" height="3.54704" fill="white"/>
<rect x="43.7471" y="15.7645" width="3.54704" height="3.54704" fill="white"/>
<rect x="48.082" y="15.7645" width="3.54704" height="3.54704" fill="white"/>
<rect x="52.418" y="15.7645" width="3.54704" height="3.54704" fill="white"/>
<rect x="56.7529" y="15.7645" width="3.54704" height="3.54704" fill="white"/>
<rect x="61.0879" y="15.7645" width="3.54704" height="3.54704" fill="white"/>
<rect x="43.7471" y="20.0999" width="3.54704" height="3.54704" fill="white"/>
<rect x="48.082" y="20.0999" width="3.54704" height="3.54704" fill="white"/>
<rect x="52.418" y="20.0999" width="3.54704" height="3.54704" fill="white"/>
<rect x="43.7471" y="24.4351" width="3.54704" height="3.54704" fill="white"/>
<rect x="48.082" y="24.4351" width="3.54704" height="3.54704" fill="white"/>
<rect x="52.418" y="24.4351" width="3.54704" height="3.54704" fill="white"/>
<rect x="43.7471" y="28.7704" width="3.54704" height="3.54704" fill="white"/>
<rect x="48.082" y="28.7704" width="3.54704" height="3.54704" fill="white"/>
<rect x="52.418" y="28.7704" width="3.54704" height="3.54704" fill="white"/>
<rect x="43.7471" y="33.1057" width="3.54704" height="3.54704" fill="white"/>
<rect x="48.082" y="33.1057" width="3.54704" height="3.54704" fill="white"/>
<rect x="52.418" y="33.1057" width="3.54704" height="3.54704" fill="white"/>
<rect x="43.7471" y="37.4409" width="3.54704" height="3.54704" fill="white"/>
<rect x="48.082" y="37.4409" width="3.54704" height="3.54704" fill="white"/>
<rect x="52.418" y="37.4409" width="3.54704" height="3.54704" fill="white"/>
<rect x="43.7471" y="41.7762" width="3.54704" height="3.54704" fill="white"/>
<rect x="48.082" y="41.7762" width="3.54704" height="3.54704" fill="white"/>
<rect x="52.418" y="41.7762" width="3.54704" height="3.54704" fill="white"/>
<rect x="43.7471" y="46.1115" width="3.54704" height="3.54704" fill="white"/>
<rect x="48.082" y="46.1115" width="3.54704" height="3.54704" fill="white"/>
<rect x="52.418" y="46.1115" width="3.54704" height="3.54704" fill="white"/>
<rect x="43.7471" y="50.4467" width="3.54704" height="3.54704" fill="white"/>
<rect x="48.082" y="50.4467" width="3.54704" height="3.54704" fill="white"/>
<rect x="52.418" y="50.4467" width="3.54704" height="3.54704" fill="white"/>
<rect x="43.7471" y="54.782" width="3.54704" height="3.54704" fill="white"/>
<rect x="48.082" y="54.782" width="3.54704" height="3.54704" fill="white"/>
<rect x="52.418" y="54.782" width="3.54704" height="3.54704" fill="white"/>
<rect x="56.7529" y="46.1115" width="3.54704" height="3.54704" fill="white"/>
<rect x="61.0879" y="46.1115" width="3.54704" height="3.54704" fill="white"/>
<rect x="65.4229" y="46.1115" width="3.54704" height="3.54704" fill="white"/>
<rect x="56.7529" y="50.4467" width="3.54704" height="3.54704" fill="white"/>
<rect x="61.0879" y="50.4467" width="3.54704" height="3.54704" fill="white"/>
<rect x="65.4229" y="50.4467" width="3.54704" height="3.54704" fill="white"/>
<rect x="56.7529" y="54.782" width="3.54704" height="3.54704" fill="white"/>
<rect x="61.0879" y="54.782" width="3.54704" height="3.54704" fill="white"/>
<rect x="65.4229" y="54.782" width="3.54704" height="3.54704" fill="white"/>
<rect x="69.7578" y="46.1115" width="3.54704" height="3.54704" fill="white"/>
<rect x="74.0938" y="46.1115" width="3.54704" height="3.54704" fill="white"/>
<rect opacity="0.9" x="78.4287" y="46.1115" width="3.54704" height="3.54704" fill="white"/>
<rect x="69.7578" y="50.4467" width="3.54704" height="3.54704" fill="white"/>
<rect x="74.0938" y="50.4467" width="3.54704" height="3.54704" fill="white"/>
<rect x="78.4287" y="50.4467" width="3.54704" height="3.54704" fill="white"/>
<rect x="69.7578" y="54.782" width="3.54704" height="3.54704" fill="white"/>
<rect x="74.0938" y="54.782" width="3.54704" height="3.54704" fill="white"/>
<rect x="78.4287" y="54.782" width="3.54704" height="3.54704" fill="white"/>
<rect x="82.7646" y="46.1115" width="3.54704" height="3.54704" fill="white"/>
<rect x="87.0996" y="46.1115" width="3.54704" height="3.54704" fill="white"/>
<rect opacity="0.9" x="82.7646" y="50.4467" width="3.54704" height="3.54704" fill="white"/>
<rect x="87.0996" y="50.4467" width="3.54704" height="3.54704" fill="white"/>
<rect x="82.7646" y="54.782" width="3.54704" height="3.54704" fill="white"/>
<rect opacity="0.9" x="87.0996" y="54.782" width="3.54704" height="3.54704" fill="white"/>
<rect x="65.4229" y="7.09412" width="3.54704" height="3.54704" fill="white"/>
<rect x="69.7578" y="7.09412" width="3.54704" height="3.54704" fill="white"/>
<rect x="74.0938" y="7.09412" width="3.54704" height="3.54704" fill="white"/>
<rect x="65.4229" y="11.4293" width="3.54704" height="3.54704" fill="white"/>
<rect x="69.7578" y="11.4293" width="3.54704" height="3.54704" fill="white"/>
<rect x="74.0938" y="11.4293" width="3.54704" height="3.54704" fill="white"/>
<rect x="65.4229" y="15.7645" width="3.54704" height="3.54704" fill="white"/>
<rect x="69.7578" y="15.7645" width="3.54704" height="3.54704" fill="white"/>
<rect x="74.0938" y="15.7645" width="3.54704" height="3.54704" fill="white"/>
<rect x="78.4287" y="7.09412" width="3.54704" height="3.54704" fill="white"/>
<rect x="82.7646" y="7.09412" width="3.54704" height="3.54704" fill="white"/>
<rect x="87.0996" y="7.09412" width="3.54704" height="3.54704" fill="white"/>
<rect x="47.2939" width="3.15292" height="3.54704" fill="white"/>
<rect x="51.6289" width="3.15292" height="3.54704" fill="white"/>
<rect x="55.9648" width="3.15292" height="3.54704" fill="white"/>
<rect x="60.2998" width="3.54704" height="3.54704" fill="white"/>
<rect x="64.6348" width="3.54704" height="3.54704" fill="white"/>
<rect x="68.9697" width="3.54704" height="3.54704" fill="white"/>
<rect x="73.3047" width="3.54704" height="3.54704" fill="white"/>
<rect x="77.6406" width="3.54704" height="3.54704" fill="white"/>
<rect x="81.9766" width="3.54704" height="3.54704" fill="white"/>
<rect x="86.3115" width="3.54704" height="3.54704" fill="white"/>
<rect x="96.9521" y="10.6411" width="3.15292" height="3.54704" transform="rotate(90 96.9521 10.6411)" fill="white"/>
<rect x="96.9521" y="14.9764" width="3.15292" height="3.54704" transform="rotate(90 96.9521 14.9764)" fill="white"/>
<rect x="96.9521" y="19.3116" width="3.15292" height="3.54704" transform="rotate(90 96.9521 19.3116)" fill="white"/>
<rect x="96.9521" y="23.6469" width="3.54704" height="3.54704" transform="rotate(90 96.9521 23.6469)" fill="white"/>
<rect x="96.9521" y="27.9822" width="3.54704" height="3.54704" transform="rotate(90 96.9521 27.9822)" fill="white"/>
<rect x="96.9521" y="32.3174" width="3.54704" height="3.54704" transform="rotate(90 96.9521 32.3174)" fill="white"/>
<rect x="96.9521" y="36.6527" width="3.54704" height="3.54704" transform="rotate(90 96.9521 36.6527)" fill="white"/>
<rect x="96.9521" y="40.988" width="3.54704" height="3.54704" transform="rotate(90 96.9521 40.988)" fill="white"/>
<rect x="96.9521" y="45.3232" width="3.54704" height="3.54704" transform="rotate(90 96.9521 45.3232)" fill="white"/>
<rect x="96.9521" y="49.6584" width="3.54704" height="3.54704" transform="rotate(90 96.9521 49.6584)" fill="white"/>
<rect x="40.1992" y="10.6411" width="3.15292" height="3.54704" transform="rotate(90 40.1992 10.6411)" fill="white"/>
<rect x="40.1992" y="14.9764" width="3.15292" height="3.54704" transform="rotate(90 40.1992 14.9764)" fill="white"/>
<rect x="40.1992" y="19.3116" width="3.15292" height="3.54704" transform="rotate(90 40.1992 19.3116)" fill="white"/>
<rect x="40.1992" y="23.6469" width="3.54704" height="3.54704" transform="rotate(90 40.1992 23.6469)" fill="white"/>
<rect x="40.1992" y="27.9822" width="3.54704" height="3.54704" transform="rotate(90 40.1992 27.9822)" fill="white"/>
<rect x="40.1992" y="32.3174" width="3.54704" height="3.54704" transform="rotate(90 40.1992 32.3174)" fill="white"/>
<rect x="40.1992" y="36.6527" width="3.54704" height="3.54704" transform="rotate(90 40.1992 36.6527)" fill="white"/>
<rect x="40.1992" y="40.988" width="3.54704" height="3.54704" transform="rotate(90 40.1992 40.988)" fill="white"/>
<rect x="40.1992" y="45.3232" width="3.54704" height="3.54704" transform="rotate(90 40.1992 45.3232)" fill="white"/>
<rect x="40.1992" y="49.6584" width="3.54704" height="3.54704" transform="rotate(90 40.1992 49.6584)" fill="white"/>
<rect x="46.8994" y="62.6643" width="3.54704" height="3.54704" fill="white"/>
<rect x="51.6289" y="62.6643" width="3.15292" height="3.54704" fill="white"/>
<rect x="55.9648" y="62.6643" width="3.15292" height="3.54704" fill="white"/>
<rect x="60.2998" y="62.6643" width="3.54704" height="3.54704" fill="white"/>
<rect x="64.6348" y="62.6643" width="3.54704" height="3.54704" fill="white"/>
<rect x="68.9697" y="62.6643" width="3.54704" height="3.54704" fill="white"/>
<rect x="73.3047" y="62.6643" width="3.54704" height="3.54704" fill="white"/>
<rect x="77.6406" y="62.6643" width="3.54704" height="3.54704" fill="white"/>
<rect x="81.9766" y="62.6643" width="3.54704" height="3.54704" fill="white"/>
<rect x="86.3115" y="62.6643" width="3.54704" height="3.54704" fill="white"/>
<rect x="78.4287" y="11.4293" width="3.54704" height="3.54704" fill="white"/>
<rect x="82.7646" y="11.4293" width="3.54704" height="3.54704" fill="white"/>
<rect x="87.0996" y="11.4293" width="3.54704" height="3.54704" fill="white"/>
<rect x="78.4287" y="15.7645" width="3.54704" height="3.54704" fill="white"/>
<rect x="82.7646" y="15.7645" width="3.54704" height="3.54704" fill="white"/>
<rect x="87.0996" y="15.7645" width="3.54704" height="3.54704" fill="white"/>
<rect x="78.4287" y="20.0999" width="3.54704" height="3.54704" fill="white"/>
<rect x="82.7646" y="20.0999" width="3.54704" height="3.54704" fill="white"/>
<rect x="87.0996" y="20.0999" width="3.54704" height="3.54704" fill="white"/>
<rect x="78.4287" y="24.4351" width="3.54704" height="3.54704" fill="white"/>
<rect x="82.7646" y="24.4351" width="3.54704" height="3.54704" fill="white"/>
<rect x="87.0996" y="24.4351" width="3.54704" height="3.54704" fill="white"/>
<rect x="78.4287" y="28.7704" width="3.54704" height="3.54704" fill="white"/>
<rect x="82.7646" y="28.7704" width="3.54704" height="3.54704" fill="white"/>
<rect x="87.0996" y="28.7704" width="3.54704" height="3.54704" fill="white"/>
<rect x="78.4287" y="33.1057" width="3.54704" height="3.54704" fill="white"/>
<rect x="82.7646" y="33.1057" width="3.54704" height="3.54704" fill="white"/>
<rect x="87.0996" y="33.1057" width="3.54704" height="3.54704" fill="white"/>
<rect x="78.4287" y="37.4409" width="3.54704" height="3.54704" fill="white"/>
<rect x="82.7646" y="37.4409" width="3.54704" height="3.54704" fill="white"/>
<rect x="87.0996" y="37.4409" width="3.54704" height="3.54704" fill="white"/>
<rect x="78.4287" y="41.7762" width="3.54704" height="3.54704" fill="white"/>
<rect x="82.7646" y="41.7762" width="3.54704" height="3.54704" fill="white"/>
<rect x="87.0996" y="41.7762" width="3.54704" height="3.54704" fill="white"/>
<rect x="58.3291" y="23.6469" width="17.3411" height="17.3411" rx="3" fill="white"/>
<rect x="5.12305" y="23.6469" width="9.85288" height="9.85288" fill="white"/>
<rect y="49.6584" width="9.85288" height="9.85288" fill="white"/>
<rect x="49.2646" y="77.6406" width="9.85288" height="9.85288" fill="white"/>
<rect x="96.9521" y="70.9408" width="9.85288" height="9.85288" fill="white"/>
<rect x="31.1348" y="12.6117" width="3.94115" height="3.94115" fill="white"/>
<rect x="25.2236" y="56.7526" width="3.94115" height="3.94115" fill="white"/>
<rect x="72.9111" y="87.0995" width="3.94115" height="3.94115" fill="white"/>
<rect x="77.2471" y="85.1289" width="3.94115" height="3.94115" fill="white"/>
</svg>
