<svg width="35" height="35" viewBox="0 0 35 35" fill="none" xmlns="http://www.w3.org/2000/svg">
<path d="M17.5173 0C27.1709 0 34.9994 7.8285 34.9994 17.4821C34.9994 27.1358 27.1709 34.9643 17.5173 34.9643C7.86366 34.9643 0.0351562 27.1358 0.0351562 17.4821C0.0351562 7.8285 7.86366 0 17.5173 0Z" fill="#1DA1F2"/>
<path d="M13.4611 26.3618C21.7057 26.3618 26.2196 19.5298 26.2196 13.6034C26.2196 13.4111 26.2196 13.2153 26.2056 13.023C27.0832 12.3866 27.842 11.6034 28.4433 10.7013C27.6252 11.065 26.7581 11.3027 25.87 11.4076C26.807 10.8482 27.5063 9.96709 27.842 8.92865C26.9609 9.44961 25.9993 9.82024 24.9959 10.016C23.2966 8.21188 20.4575 8.12447 18.6533 9.82024C17.489 10.9146 16.996 12.5474 17.3562 14.1034C13.7513 13.9215 10.3913 12.2188 8.11511 9.41815C6.92632 11.4671 7.5312 14.0859 9.50319 15.404C8.78992 15.3831 8.09063 15.1907 7.46827 14.8446C7.46827 14.8621 7.46827 14.8831 7.46827 14.9005C7.46827 17.0334 8.97173 18.8725 11.0661 19.2956C10.4053 19.4739 9.71297 19.5018 9.04166 19.3725C9.62906 21.1976 11.3108 22.4493 13.2304 22.4878C11.643 23.736 9.68151 24.4143 7.66407 24.4108C7.30743 24.4108 6.9508 24.3898 6.59766 24.3444C8.63957 25.6625 11.0276 26.3618 13.4611 26.3583" fill="white"/>
</svg>
