<svg width="35" height="35" viewBox="0 0 35 35" fill="none" xmlns="http://www.w3.org/2000/svg">
<path d="M17.5 35C27.165 35 35 27.165 35 17.5C35 7.83502 27.165 0 17.5 0C7.83502 0 0 7.83502 0 17.5C0 27.165 7.83502 35 17.5 35Z" fill="#007AB9"/>
<path d="M27.956 18.9082V26.123H23.773V19.3917C23.773 17.7015 23.169 16.5473 21.6545 16.5473C20.4987 16.5473 19.8121 17.3244 19.5089 18.0768C19.3987 18.3457 19.3704 18.7191 19.3704 19.0963V26.1227H15.187C15.187 26.1227 15.2432 14.722 15.187 13.5419H19.3707V15.3247C19.3622 15.3388 19.3504 15.3525 19.3429 15.3659H19.3707V15.3247C19.9266 14.4694 20.918 13.2465 23.1406 13.2465C25.8927 13.2465 27.956 15.0446 27.956 18.9082ZM10.811 7.47754C9.38002 7.47754 8.44385 8.41683 8.44385 9.65092C8.44385 10.8588 9.35288 11.8252 10.7561 11.8252H10.7832C12.2422 11.8252 13.1494 10.8588 13.1494 9.65092C13.1216 8.41683 12.2422 7.47754 10.811 7.47754ZM8.69247 26.123H12.8742V13.5419H8.69247V26.123Z" fill="#F1F2F2"/>
</svg>
